<?xml version="1.0" encoding="UTF-8" standalone="no"?>
<!-- Created with Inkscape (http://www.inkscape.org/) -->

<svg
   width="1920mm"
   height="1080mm"
   viewBox="0 0 1920 1080"
   version="1.1"
   id="svg1"
   inkscape:version="1.3.2 (091e20e, 2023-11-25)"
   sodipodi:docname="BG1.svg"
   xmlns:inkscape="http://www.inkscape.org/namespaces/inkscape"
   xmlns:sodipodi="http://sodipodi.sourceforge.net/DTD/sodipodi-0.dtd"
   xmlns="http://www.w3.org/2000/svg"
   xmlns:svg="http://www.w3.org/2000/svg">
  <sodipodi:namedview
     id="namedview1"
     pagecolor="#505050"
     bordercolor="#eeeeee"
     borderopacity="1"
     inkscape:showpageshadow="0"
     inkscape:pageopacity="0"
     inkscape:pagecheckerboard="0"
     inkscape:deskcolor="#505050"
     inkscape:document-units="mm"
     inkscape:zoom="0.13791448"
     inkscape:cx="1439.2978"
     inkscape:cy="1558.9371"
     inkscape:window-width="1512"
     inkscape:window-height="917"
     inkscape:window-x="0"
     inkscape:window-y="65"
     inkscape:window-maximized="0"
     inkscape:current-layer="g13" />
  <defs
     id="defs1" />
  <g
     inkscape:label="Layer 1"
     inkscape:groupmode="layer"
     id="layer1">
    <g
       id="g13"
       inkscape:label="C"
       transform="matrix(1.1183016,0,0,1.3905917,-364.80121,-319.84815)"
       style="fill:#ffe6d5">
      <path
         style="fill:#ffe6d5;stroke-width:0.909001;-inkscape-stroke:none"
         d="m 578.73963,656.55286 40.85934,-42.86398 98.11883,200.16247 -56.87257,128.98252 6.6004,13.53508 45.79722,9.54531 -4.1629,5.47829 -70.42174,-0.90127 -2.1661,-14.29938 12.43762,-14.51956 30.65556,-142.85308 z"
         id="path1"
         inkscape:label="CLLeg"
         sodipodi:nodetypes="cccccccccccc" />
      <path
         style="fill:#ffe6d5;stroke-width:0.909001;-inkscape-stroke:none"
         d="m 575.91122,657.65175 -85.62412,152.90208 -101.21228,82.66038 -20.03,25.13228 8.51109,37.3557 9.19653,5.22274 4.01614,-34.68013 9.25411,-17.53011 L 504.6384,840.41871 636.43399,675.3676 Z"
         id="path2"
         inkscape:label="CRLeg"
         sodipodi:nodetypes="ccccccccccc" />
      <path
         style="fill:#1a1a1a;fill-opacity:1;stroke-width:1;-inkscape-stroke:none"
         d="m 253.93904,825.57672 10.98243,27.47301 34.0659,48.62081 -18.35207,94.39053 13.19163,6.59583 38.98504,-88.4841 -33.14965,-91.42191 -16.59173,-29.60362 z"
         id="path19"
         transform="matrix(1.4754807,0,0,1.3026207,236.04361,-376.58979)"
         sodipodi:nodetypes="ccccccccc" />
      <path
         style="fill:#1a1a1a;fill-opacity:1;stroke-width:1;-inkscape-stroke:none"
         d="m 229.08588,796.23252 -11.64506,14.95565 -44.87279,97.86274 -65.57174,61.38148 9.8606,13.38961 73.18021,-54.88516 75.63888,-110.43206 z"
         id="path20"
         transform="matrix(1.4754807,0,0,1.3026207,236.04361,-376.58979)"
         sodipodi:nodetypes="cccccccc" />
      <path
         style="fill:#ff00ff;stroke-width:1.21999;-inkscape-stroke:none"
         d="m 649.33465,389.57199 5.21731,-55.87908 -20.71129,-6.94365 -16.61125,3.88783 -18.60869,11.52237 -5.98662,23.69225 -0.39569,70.1501 -22.56394,60.72007 -1.75746,49.05357 9.09814,40.12594 17.19168,17.27758 14.81357,-35.14673 24.72658,-78.87375 z"
         id="path14"
         inkscape:label="CHair"
         sodipodi:nodetypes="cccccccccccccc" />
      <path
         style="fill:#666666;fill-opacity:1;stroke-width:1.38636;-inkscape-stroke:none"
         d="m 518.2981,548.70652 5.96487,-18.73827 4.54152,-30.35338 8.58434,31.35599 -2.81607,23.52334 z"
         id="path47"
         transform="translate(-1.7521332e-6)"
         sodipodi:nodetypes="cccccc" />
      <path
         style="fill:#1a1a1a;stroke-width:0.883541;-inkscape-stroke:none"
         d="m 573.00417,663.27144 25.78084,-69.57651 -5.1557,-140.56692 20.3732,-10.40951 32.36565,-0.87867 14.91823,-0.405 25.07428,14.35076 -32.62642,137.88409 0.97268,75.25362 -40.33774,36.45319 z"
         id="path3"
         sodipodi:nodetypes="ccccccccccc"
         inkscape:label="CBody" />
      <path
         style="fill:#666666;fill-opacity:1;stroke-width:1.38636;-inkscape-stroke:none"
         d="m 716.28907,813.82205 23.74841,-32.61401 -11.87419,39.60272 -19.79035,25.04291 z"
         id="path45"
         transform="translate(-1.7521332e-6)" />
      <g
         id="g1"
         inkscape:label="Weapon"
         style="fill:#ffe6d5"
         transform="translate(-1.7521332e-6)">
        <path
           style="fill:#999999;stroke-width:1.38636;-inkscape-stroke:none"
           d="m 648.27648,922.6114 25.59319,-125.07838 22.85102,21.78785 60.32679,-20.98088 -86.83399,129.11315 z"
           id="path27" />
        <path
           style="fill:#ff00ff;fill-opacity:0.5;stroke-width:0.801901;-inkscape-stroke:none"
           d="m 560.51972,714.1534 175.6552,149.13565 -43.79594,16.57389 -98.56181,4.44461 66.90028,23.76451 79.10397,4.42644 79.59167,-25.47005 19.82478,-53.4128 2.99445,-57.67751 -41.32355,-78.8408 6.60949,93.85376 -20.67546,32.77041 -208.772,-132.22288 -12.46836,9.02423 z"
           id="path48"
           transform="translate(8.0861432e-6)"
           inkscape:label="path48"
           sodipodi:nodetypes="ccccccccccccccc" />
        <path
           style="fill:#333333;stroke-width:1.38636;-inkscape-stroke:none"
           d="m 425.69421,619.66088 -3.78771,-9.95773 3.14087,-15.80631 15.87224,-2.36932 13.79587,6.08716 5.72094,14.23419 -10.21754,-9.36747 -11.03035,-0.34692 128.561,91.4834 21.52468,-12.92349 30.56803,1.19943 -30.2545,6.31073 -19.88753,14.48221 -13.53308,25.10391 -2.12135,23.00885 -6.97011,-25.41676 11.75508,-22.01786 -127.31475,-96.49126 2.4343,11.18968 9.23197,9.22097 z"
           id="path28"
           sodipodi:nodetypes="ccccccccccccccccccccc" />
        <path
           style="fill:#999999;stroke-width:1.38636;-inkscape-stroke:none"
           d="m 562.60992,698.35498 4.29066,10.52217 71.90483,45.76413 -64.75375,-55.02365 z"
           id="path49"
           sodipodi:nodetypes="ccccc" />
        <path
           style="fill:#cccccc;stroke-width:1.38636;-inkscape-stroke:none"
           d="m 425.84141,599.72417 -1.86303,8.4431 2.42423,9.91014 9.09358,4.63853 -7.8811,-5.41162 -2.4117,-9.17024 z"
           id="path50"
           sodipodi:nodetypes="ccccccc" />
        <path
           style="fill:#cccccc;stroke-width:1.38636;-inkscape-stroke:none"
           d="m 429.04538,594.85812 10.83461,-1.49903 11.72403,4.71125 5.90245,8.92287 -6.95357,-7.70935 -10.67291,-4.49712 z"
           id="path51" />
      </g>
      <path
         style="fill:#ffe6d5;stroke-width:0.799916;-inkscape-stroke:none"
         d="m 595.80274,451.76245 -29.13579,17.50193 -29.62742,41.34121 -12.3483,11.72977 -41.73486,86.62401 -22.76414,29.28812 9.71338,8.61732 11.98627,1.54452 4.60365,0.0396 -3.30448,-2.47339 4.53166,-9.32501 4.52204,3.34051 -0.98563,-6.2097 6.41253,-14.9336 61.55367,-92.50578 37.49682,-42.10195 z"
         id="path5"
         inkscape:label="CRarm"
         sodipodi:nodetypes="ccccccccccccccccc"
         transform="translate(-1.7521332e-6)" />
      <path
         style="fill:#ffe6d5;fill-opacity:1;stroke-width:1.21999;-inkscape-stroke:none"
         d="m 634.64021,380.46533 -0.69625,17.20908 -9.74791,36.07438 -6.49429,9.53108 35.86247,7.26891 2.49119,-8.34334 -5.72035,-13.0617 -0.36716,-9.49316 5.93534,-7.00398 z"
         id="path17"
         sodipodi:nodetypes="cccccccccc" />
      <path
         style="fill:#ffe6d5;stroke-width:0.657686;-inkscape-stroke:none"
         d="m 634.19643,394.17093 -4.83986,-31.92339 33.39722,-20.14059 14.90713,33.65526 -6.48128,24.66011 -3.63549,3.87131 -2.04709,3.30245 0.27013,3.59851 -2.34421,11.23839 -1.58275,0.89317 -2.22684,-0.31558 -7.82776,-4.57263 -4.90864,-4.11898 z"
         id="path8"
         sodipodi:nodetypes="cccccccccccccc"
         inkscape:label="CHead" />
      <path
         style="fill:#ff00ff;stroke-width:1.00307;-inkscape-stroke:none"
         d="m 643.5698,359.58042 1.94807,25.66596 12.83659,27.00613 -14.56854,-12.32252 -4.47749,28.30761 -24.26214,-33.75353 -3.11732,-45.05669 18.02321,-14.92735 31.16626,-0.87362 13.79088,13.1669 -0.017,5.827 0.98765,31.37339 -12.53107,-18.08723 z"
         id="path13"
         sodipodi:nodetypes="cccccccccccccc"
         inkscape:label="path13" />
      <path
         style="fill:#4d4d4d;fill-opacity:1;stroke-width:1.38636;-inkscape-stroke:none"
         d="m 653.1484,364.50869 6.84439,-5.50936 -0.60393,-13.50683 7.247,21.5043 -6.64307,5.6871 z"
         id="path30"
         transform="translate(-1.7521332e-6)" />
      <path
         style="fill:#1a1a1a;fill-opacity:1;stroke-width:1.00307;-inkscape-stroke:none"
         d="m 645.45604,386.24637 10.031,1.90737 16.04715,12.29107 4.82934,-14.86757 2.17421,-9.2981 -4.09362,-25.05175 -11.91072,14.61912 -22.59401,-14.72811 z"
         id="path23"
         sodipodi:nodetypes="ccccccccc" />
      <path
         style="fill:#cccccc;fill-opacity:1;stroke-width:1;-inkscape-stroke:none"
         d="m 268.757,687.55622 -7.06636,13.42607 0.47109,11.30617 4.47535,8.47963 -10.36398,-10.83508 -0.23555,-14.36825 11.77727,-17.1948 z"
         id="path36"
         transform="matrix(1.4754807,0,0,1.3026207,236.04361,-376.58979)" />
      <path
         style="fill:#666666;fill-opacity:1;stroke-width:1.38636;-inkscape-stroke:none"
         d="m 482.97765,826.80632 14.16985,-10.53384 15.57712,0.19535 34.76254,-17.48285 -23.65193,28.02016 -43.08205,7.32931 z"
         id="path44"
         transform="translate(-1.7521332e-6)"
         inkscape:label="path44"
         sodipodi:nodetypes="ccccccc" />
      <path
         style="fill:#cccccc;fill-opacity:1;stroke-width:1.13195;-inkscape-stroke:none"
         d="m 655.69613,517.56715 6.95083,17.48908 -0.46338,14.72765 -4.40219,11.04574 10.19454,-14.114 0.2317,-18.71638 -11.58472,-22.3983 z"
         id="path36-9" />
      <path
         style="fill:#000000;fill-opacity:0.1;stroke-width:0.801901;-inkscape-stroke:none"
         d="m 655.14597,388.17175 15.48157,12.75757 0.57341,-0.53797 0.0956,-2.84355 z"
         id="path56"
         transform="translate(6.3340099e-6)" />
      <path
         style="fill:#999999;stroke-width:1.38636;-inkscape-stroke:none"
         d="m 593.10758,452.57905 62.13313,12.94448 31.86599,-17.45128 -12.2858,63.21123 -16.39161,8.53689 -11.30917,45.09993 -6.29211,10.77517 -5.51321,-13.34313 -0.53249,-42.68856 -20.69193,-5.20771 z"
         id="path25"
         sodipodi:nodetypes="ccccccccccc" />
      <path
         style="fill:#000000;fill-opacity:1;stroke-width:0.801901;-inkscape-stroke:none"
         d="m 667.31222,405.13718 -7.71357,-1.47965 -3.77527,-1.34103 0.1071,3.62881 -0.78545,2.81711 2.18182,0.2015 8.37653,2.24857 -0.1083,-3.64226 z"
         id="path54"
         transform="translate(6.3340099e-6)"
         inkscape:label="path54"
         sodipodi:nodetypes="ccccccccc" />
      <path
         style="fill:#ffffff;fill-opacity:1;stroke-width:0.801901;-inkscape-stroke:none"
         d="m 667.23608,405.11793 -7.69732,-1.47629 -3.67969,-1.2774 0.43688,1.56156 2.38179,1.14507 5.53425,1.10282 2.10069,0.44489 z"
         id="path52"
         transform="translate(6.3340099e-6)"
         sodipodi:nodetypes="cccccccc" />
      <path
         style="fill:#999999;stroke-width:1.38636;-inkscape-stroke:none"
         d="m 393.79483,886.6131 104.34764,-92.49162 -0.91405,31.47135 61.24081,0.80694 -153.55903,80.69575 z"
         id="path26"
         sodipodi:nodetypes="cccccc" />
      <path
         style="fill:#cccccc;fill-opacity:1;stroke-width:1.38636;-inkscape-stroke:none"
         d="m 646.39212,361.14706 4.20154,20.19504 7.00254,3.29715 13.09424,8.85129 -13.79451,-7.61486 -8.63643,-2.67894 -5.1352,-27.40753 18.67341,12.36431 9.80357,-7.00646 -10.03698,10.30361 z"
         id="path35"
         transform="translate(-1.7521332e-6)"
         sodipodi:nodetypes="ccccccccccc" />
      <path
         style="fill:#cccccc;fill-opacity:1;stroke-width:1.38636;-inkscape-stroke:none"
         d="m 599.09421,581.48881 9.29982,11.36809 19.315,11.05233 -22.89186,-4.42092 -6.79602,-8.21029 z"
         id="path39"
         transform="translate(-1.7521332e-6)" />
      <path
         style="fill:#cccccc;fill-opacity:1;stroke-width:1.38636;-inkscape-stroke:none"
         d="m 595.15967,602.33034 7.86908,13.26279 20.03037,7.57872 -25.03797,-1.89469 -7.51139,-7.57872 z"
         id="path40"
         transform="translate(-1.7521332e-6)" />
      <path
         style="fill:#cccccc;fill-opacity:1;stroke-width:1.38636;-inkscape-stroke:none"
         d="m 652.747,589.38333 -5.72296,7.26295 -11.08826,5.36826 12.8767,-0.31577 4.2922,-2.84203 z"
         id="path41"
         transform="translate(-1.7521332e-6)" />
      <path
         style="fill:#cccccc;fill-opacity:1;stroke-width:1.38636;-inkscape-stroke:none"
         d="m 652.747,607.6986 -8.22675,8.52607 -14.30743,5.36829 15.02278,0.63154 8.94214,-4.42091 z"
         id="path42"
         transform="translate(-1.7521332e-6)" />
      <path
         style="fill:#cccccc;fill-opacity:1;stroke-width:1;-inkscape-stroke:none"
         d="m 242.14713,626.69631 11.24785,4.45669 4.45478,7.219 8.82553,11.07592 2.21161,11.41558 -22.70752,-25.89047 z"
         id="path37"
         transform="matrix(1.4754807,0,0,1.3026207,236.04361,-376.58979)"
         sodipodi:nodetypes="ccccccc" />
      <path
         style="fill:#cccccc;fill-opacity:1;stroke-width:1;-inkscape-stroke:none"
         d="m 292.49097,628.94386 1.60446,4.97377 3.04845,3.8507 -7.38562,11.30404 0.73707,12.73053 12.74545,-27.24347 z"
         id="path38"
         transform="matrix(1.4754807,0,0,1.3026207,236.04361,-376.58979)"
         sodipodi:nodetypes="ccccccc" />
      <path
         style="fill:#ffe6d5;stroke-width:0.799916;-inkscape-stroke:none"
         d="m 678.5011,485.29393 -15.98013,74.66675 -104.5655,102.59502 -14.43783,8.68385 -7.57626,-0.30021 3.70166,2.4355 -11.16379,6.90977 -3.53562,-2.8737 -1.02782,5.61845 8.0519,10.60672 11.14262,4.13172 25.48417,-26.099 86.75138,-67.77353 28.13347,-32.47049 25.62139,-73.28709 3.54418,-21.19515 -22.3045,-16.77381 z"
         id="path4"
         inkscape:label="CLArm"
         sodipodi:nodetypes="cccccccccccccccccc"
         transform="translate(-1.7521332e-6)" />
      <path
         style="fill:#666666;fill-opacity:1;stroke-width:1.38636;-inkscape-stroke:none"
         d="m 619.49076,606.33233 22.42284,-6.22243 9.43045,-0.63563 15.96798,-4.05496 -17.46289,13.19854 -19.36734,11.82848 z"
         id="path46"
         inkscape:label="path46"
         sodipodi:nodetypes="ccccccc" />
      <path
         style="fill:#666666;fill-opacity:1;stroke-width:1.38636;-inkscape-stroke:none"
         d="m 634.72463,488.42609 -6.49131,-16.95411 -13.85073,-13.33966 -24.5987,-26.47668 -32.2062,27.50086 5.80768,21.44134 -22.45113,26.8041 41.78079,-5.26273 22.13594,-16.85878 17.65872,-2.56422 z"
         id="path31"
         sodipodi:nodetypes="ccccccccccc" />
      <path
         style="fill:#666666;fill-opacity:1;stroke-width:1.38636;-inkscape-stroke:none"
         d="m 679.60716,482.20799 -5.96137,0.42572 -9.22977,5.73995 1.9031,-17.23151 12.6918,-19.4435 -16.28376,-9.45614 25.25928,-13.38355 33.7901,28.43308 -11.25827,22.99055 17.43537,18.73418 -28.20624,-2.5575 z"
         id="path32"
         sodipodi:nodetypes="cccccccccccc" />
      <path
         style="fill:#999999;fill-opacity:1;stroke-width:1.38636;-inkscape-stroke:none"
         d="m 482.99644,608.44515 40.08001,-83.04175 18.38201,-2.9605 11.34704,16.53396 -53.44471,78.66195 z"
         id="path33"
         sodipodi:nodetypes="cccccc" />
      <path
         style="fill:#999999;fill-opacity:1;stroke-width:1.38636;-inkscape-stroke:none"
         d="m 557.45754,662.49956 9.59213,10.30121 83.02482,-61.36143 -18.27892,3.40976 27.31481,-30.07003 -35.04464,21.93407 4.94754,-14.20895 z"
         id="path34"
         sodipodi:nodetypes="cccccccc" />
      <path
         style="fill:#cccccc;fill-opacity:1;stroke-width:1.38636;-inkscape-stroke:none"
         d="m 399.79141,897.60664 3.16211,-9.7994 79.18113,-58.61575 15.83505,-3.89452 -11.17629,13.0995 -75.18501,57.54095 z"
         id="path43"
         sodipodi:nodetypes="ccccccc" />
      <path
         style="fill:#ffffff;fill-opacity:1;stroke-width:0.801901;-inkscape-stroke:none"
         d="m 665.87071,409.86242 -1.66128,-0.64246 -5.92766,-1.50651 -2.17277,0.0463 -0.92827,1.05044 2.16007,0.14516 8.43252,2.26431 z"
         id="path53"
         sodipodi:nodetypes="cccccccc" />
      <path
         style="fill:#000000;fill-opacity:0.1;stroke-width:0.801901;-inkscape-stroke:none"
         d="m 634.35938,519.16923 15.19966,2.57839 9.26228,-2.00542 -0.94998,2.86487 -9.0248,1.71893 -14.24967,-2.67388 z"
         id="path55" />
    </g>
    <g
       id="g12"
       inkscape:label="N"
       transform="matrix(0.58412343,0,0,0.70693097,773.19468,35.958734)"
       style="display:none;fill:#6c5353">
      <path
         style="fill:#6c5353;stroke-width:1;-inkscape-stroke:none"
         d="m 1330.2154,590.19957 -61.0967,217.23265 282.8551,174.2387 -375.6315,-156.13596 104.0906,-294.16925 z"
         id="path11"
         inkscape:label="NLLeg" />
      <path
         style="fill:#1a1a1a;fill-opacity:1;stroke-width:1.38636;-inkscape-stroke:none"
         d="m 2475.7651,167.12416 -83.0381,261.67511 220.2816,100.80087 11.533,-16.29103 -153.3898,-99.78271 66.8918,-204.6564 z"
         id="path21"
         transform="matrix(1.1602774,0,0,1.085938,-1597.5598,358.08716)" />
      <path
         style="fill:#6c5353;stroke-width:1;-inkscape-stroke:none"
         d="m 1409.5736,291.52344 32.5661,-64.56731 187.7425,-112.15416 52.2589,45.41035 128.9115,212.59993 20.9538,17.47573 -3.3576,17.91617 -24.6653,-4.82056 -8.3421,-16.2181 -182.58,-208.41029 -134.3974,131.23105 z"
         id="path7"
         sodipodi:nodetypes="cccccccccccc"
         inkscape:label="NLArm" />
      <path
         style="fill:#6c5353;stroke-width:1;-inkscape-stroke:none"
         d="m 1340.9635,581.62053 57.1371,200.92046 287.3807,-31.67975 -323.5861,119.93051 -86.5541,-320.85098 z"
         id="path10"
         sodipodi:nodetypes="cccccc"
         inkscape:label="NRLeg" />
      <path
         style="fill:#214478;fill-opacity:1;stroke-width:1.55618;-inkscape-stroke:none"
         d="m 1802.3842,380.96177 -471.3663,547.9462 4.6213,202.37733 270.3423,-85.9149 136.3267,-286.38303 -339.6611,148.91917 445.9496,-555.58307 z"
         id="path29"
         inkscape:label="path29" />
      <path
         style="fill:#1a1a1a;fill-opacity:1;stroke-width:1.38636;-inkscape-stroke:none"
         d="m 2474.6118,172.21515 77.2715,302.4027 174.1493,-71.27335 -27.6794,-29.52756 -111.8707,14.25469 -53.0521,-183.27438 z"
         id="path22"
         transform="matrix(1.1602774,0,0,1.085938,-1597.5598,358.08716)" />
      <path
         style="fill:#214478;stroke-width:1.55618;-inkscape-stroke:none"
         d="m 1560.5755,194.49852 20.0177,50.33999 -59.8054,122.25429 -38.5981,89.67767 -33.1767,83.23302 1.3378,-75.23096 35.3757,-209.86602 33.0728,-49.62085 z"
         id="path16"
         inkscape:label="path16"
         sodipodi:nodetypes="ccccccccc" />
      <path
         style="fill:#6c5353;stroke-width:1;-inkscape-stroke:none"
         d="m 1555.6775,346.47813 116.9381,-105.83182 109.8184,130.27134 19.8261,34.27412 23.3025,3.52028 7.2714,-18.1941 -25.4037,-21.43944 -102.7992,-175.52625 -35.4279,-6.72793 -146.8608,95.70894 -19.9638,43.10201 z"
         id="path6"
         inkscape:label="NRArm"
         sodipodi:nodetypes="cccccccccccc" />
      <path
         style="fill:#1a1a1a;stroke-width:1;-inkscape-stroke:none"
         d="m 1439.9082,293.51292 -40.1195,-7.55044 -75.5596,174.59688 -44.2194,82.14647 8.41,73.27113 58.3211,-28.39372 41.5221,-109.0335 166.4475,-131.46343 -61.5931,-40.14459 z"
         id="path9"
         sodipodi:nodetypes="cccccccccc"
         inkscape:label="NBody" />
      <path
         style="fill:#6c5353;fill-opacity:1;stroke-width:1.55618;-inkscape-stroke:none"
         d="m 1445.8611,294.4579 36.7523,-41.6471 29.3352,-6.28237 -21.4598,62.24566 z"
         id="path18"
         sodipodi:nodetypes="ccccc" />
      <path
         style="fill:#6c5353;stroke-width:1;-inkscape-stroke:none"
         d="m 1447.1611,281.38771 15.5673,-44.74001 25.9185,-30.95756 32.946,-15.78516 11.5188,37.72384 -44.8857,37.55525 z"
         id="path12"
         sodipodi:nodetypes="ccccccc"
         inkscape:label="NHead" />
      <path
         style="fill:#214478;stroke-width:1.38636;-inkscape-stroke:none"
         d="m 2658.4288,-140.57652 30.0357,-5.90103 -4.8412,18.37602 -6.0252,24.48048 -41.6474,63.317273 88.1253,-72.802143 2.8849,-31.36665 -11.6599,-15.62362 -24.6841,-2.65425 z"
         id="path15"
         transform="matrix(1.1602774,0,0,1.085938,-1597.5598,358.08716)"
         inkscape:label="path15"
         sodipodi:nodetypes="cccccccccc" />
      <path
         style="fill:#1a1a1a;fill-opacity:1;stroke-width:1.55618;-inkscape-stroke:none"
         d="m 1462.065,236.63876 17.957,-5.39122 2.4647,28.458 31.129,-22.91437 8.4033,-46.37231 -34.5133,15.37478 z"
         id="path24"
         sodipodi:nodetypes="ccccccc" />
    </g>
  </g>
</svg>
