<?xml version="1.0" encoding="UTF-8" standalone="no"?>
<!-- Created with Inkscape (http://www.inkscape.org/) -->

<svg
   width="1920mm"
   height="1080mm"
   viewBox="0 0 1920 1080"
   version="1.1"
   id="svg1"
   inkscape:version="1.3.2 (091e20e, 2023-11-25)"
   sodipodi:docname="BG2.svg"
   xmlns:inkscape="http://www.inkscape.org/namespaces/inkscape"
   xmlns:sodipodi="http://sodipodi.sourceforge.net/DTD/sodipodi-0.dtd"
   xmlns="http://www.w3.org/2000/svg"
   xmlns:svg="http://www.w3.org/2000/svg">
  <sodipodi:namedview
     id="namedview1"
     pagecolor="#505050"
     bordercolor="#eeeeee"
     borderopacity="1"
     inkscape:showpageshadow="0"
     inkscape:pageopacity="0"
     inkscape:pagecheckerboard="0"
     inkscape:deskcolor="#505050"
     inkscape:document-units="mm"
     inkscape:zoom="0.31525333"
     inkscape:cx="6253.7008"
     inkscape:cy="1589.1981"
     inkscape:window-width="1512"
     inkscape:window-height="917"
     inkscape:window-x="0"
     inkscape:window-y="65"
     inkscape:window-maximized="0"
     inkscape:current-layer="g12" />
  <defs
     id="defs1" />
  <g
     inkscape:label="Layer 1"
     inkscape:groupmode="layer"
     id="layer1">
    <g
       id="g13"
       inkscape:label="C"
       transform="matrix(1.1183016,0,0,1.3905917,-364.80121,-319.84815)"
       style="display:none;fill:#ffe6d5">
      <path
         style="fill:#ffe6d5;stroke-width:0.909001;-inkscape-stroke:none"
         d="m 578.73963,656.55286 40.85934,-42.86398 98.11883,200.16247 -56.87257,128.98252 6.6004,13.53508 41.63432,15.0236 -70.42174,-0.90127 -2.1661,-14.29938 12.43762,-14.51956 30.65556,-142.85308 z"
         id="path1"
         inkscape:label="CLLeg"
         sodipodi:nodetypes="ccccccccccc" />
      <path
         style="fill:#ffe6d5;stroke-width:0.909001;-inkscape-stroke:none"
         d="m 575.91122,657.65175 -80.82275,145.82318 -101.21228,82.66038 -16.59674,35.38742 8.51109,37.3557 13.21267,-29.45739 5.82085,-27.78525 104.61571,-68.29598 126.99422,-157.97221 z"
         id="path2"
         inkscape:label="CRLeg"
         sodipodi:nodetypes="cccccccccc" />
      <path
         style="fill:#1a1a1a;fill-opacity:1;stroke-width:1;-inkscape-stroke:none"
         d="m 253.93904,825.57672 10.98243,27.47301 34.0659,48.62081 -18.35207,94.39053 13.19163,6.59583 38.98504,-88.4841 -49.74138,-121.02553 z"
         id="path19"
         transform="matrix(1.4754807,0,0,1.3026207,236.04361,-376.58979)"
         sodipodi:nodetypes="cccccccc" />
      <path
         style="fill:#1a1a1a;fill-opacity:1;stroke-width:1;-inkscape-stroke:none"
         d="m 229.08588,796.23252 -14.24124,20.57224 -39.0225,86.81179 -65.57174,61.38148 9.8606,13.38961 73.18021,-54.88516 72.38477,-104.9977 z"
         id="path20"
         transform="matrix(1.4754807,0,0,1.3026207,236.04361,-376.58979)"
         sodipodi:nodetypes="cccccccc" />
      <path
         style="fill:#ff00ff;stroke-width:1.21999;-inkscape-stroke:none"
         d="m 649.33465,389.57199 16.7197,-49.21039 -32.21368,-13.61234 -21.47075,3.15433 -12.64551,31.06073 -7.48599,75.03749 -22.56394,60.72007 -1.75746,49.05357 26.28982,57.40352 14.81357,-35.14673 24.72658,-78.87375 z"
         id="path14"
         inkscape:label="CHair"
         sodipodi:nodetypes="cccccccccccc" />
      <path
         style="fill:#666666;fill-opacity:1;stroke-width:1.38636;-inkscape-stroke:none"
         d="m 518.2981,548.70652 5.96487,-18.73827 4.54152,-30.35338 8.58434,31.35599 -2.81607,23.52334 z"
         id="path47"
         transform="translate(-1.7521332e-6)"
         sodipodi:nodetypes="cccccc" />
      <path
         style="fill:#1a1a1a;stroke-width:0.883541;-inkscape-stroke:none"
         d="m 573.00417,663.27144 25.78084,-69.57651 -5.1557,-140.56692 20.3732,-10.40951 32.36565,-0.87867 14.91823,-0.405 25.07428,14.35076 -32.62642,137.88409 0.97268,75.25362 -40.33774,36.45319 z"
         id="path3"
         sodipodi:nodetypes="ccccccccccc"
         inkscape:label="CBody" />
      <path
         style="fill:#666666;fill-opacity:1;stroke-width:1.38636;-inkscape-stroke:none"
         d="m 716.28907,813.82205 23.74841,-32.61401 -11.87419,39.60272 -19.79035,25.04291 z"
         id="path45"
         transform="translate(-1.7521332e-6)" />
      <g
         id="g1"
         inkscape:label="Weapon"
         style="fill:#ffe6d5"
         transform="translate(-1.7521332e-6)">
        <path
           style="fill:#999999;stroke-width:1.38636;-inkscape-stroke:none"
           d="m 648.27648,922.6114 25.59319,-125.07838 22.85102,21.78785 60.32679,-20.98088 -86.83399,129.11315 z"
           id="path27" />
        <path
           style="fill:#333333;stroke-width:1.38636;-inkscape-stroke:none"
           d="m 425.69421,619.66088 -3.78771,-9.95773 3.14087,-15.80631 15.87224,-2.36932 13.79587,6.08716 5.72094,14.23419 -10.21754,-9.36747 -11.03035,-0.34692 128.561,91.4834 21.52468,-12.92349 30.56803,1.19943 -30.2545,6.31073 -19.88753,14.48221 -13.53308,25.10391 -2.12135,23.00885 -6.97011,-25.41676 11.75508,-22.01786 -127.31475,-96.49126 2.4343,11.18968 9.23197,9.22097 z"
           id="path28"
           sodipodi:nodetypes="ccccccccccccccccccccc" />
        <path
           style="fill:#ff00ff;stroke-width:1.38636;-inkscape-stroke:none"
           d="M 563.58093,714.59613 885.59919,944.1531 580.59868,694.98658 569.2976,702.81555 Z"
           id="path48"
           sodipodi:nodetypes="ccccc" />
        <path
           style="fill:#999999;stroke-width:1.38636;-inkscape-stroke:none"
           d="m 562.60992,698.35498 4.29066,10.52217 71.90483,45.76413 -64.75375,-55.02365 z"
           id="path49"
           sodipodi:nodetypes="ccccc" />
        <path
           style="fill:#cccccc;stroke-width:1.38636;-inkscape-stroke:none"
           d="m 425.84141,599.72417 -1.86303,8.4431 2.42423,9.91014 9.09358,4.63853 -7.8811,-5.41162 -2.4117,-9.17024 z"
           id="path50"
           sodipodi:nodetypes="ccccccc" />
        <path
           style="fill:#cccccc;stroke-width:1.38636;-inkscape-stroke:none"
           d="m 429.04538,594.85812 10.83461,-1.49903 11.72403,4.71125 5.90245,8.92287 -6.95357,-7.70935 -10.67291,-4.49712 z"
           id="path51" />
      </g>
      <path
         style="fill:#ffe6d5;stroke-width:0.799916;-inkscape-stroke:none"
         d="m 595.80274,451.76245 -29.13579,17.50193 -29.62742,41.34121 -12.3483,11.72977 -41.73486,86.62401 -27.99561,34.03808 7.18202,9.02446 18.73656,-3.61258 16.79231,-29.56164 61.55367,-92.50578 37.49682,-42.10195 z"
         id="path5"
         inkscape:label="CRarm"
         sodipodi:nodetypes="cccccccccccc"
         transform="translate(-1.7521332e-6)" />
      <path
         style="fill:#ffe6d5;fill-opacity:1;stroke-width:1.21999;-inkscape-stroke:none"
         d="m 634.64021,380.46533 -0.69625,17.20908 -16.2422,45.60546 35.86247,7.26891 2.49119,-8.34334 -5.72035,-13.0617 -1.06488,-27.53352 z"
         id="path17"
         sodipodi:nodetypes="cccccccc" />
      <path
         style="fill:#ffe6d5;stroke-width:0.657686;-inkscape-stroke:none"
         d="m 635.40405,394.17093 -6.04748,-31.92339 33.39722,-20.14059 14.90713,33.65526 -7.34026,28.01536 -3.50387,6.07174 -3.8755,14.89295 -16.0643,-10.4233 z"
         id="path8"
         sodipodi:nodetypes="ccccccccc"
         inkscape:label="CHead" />
      <path
         style="fill:#ff00ff;stroke-width:1.00307;-inkscape-stroke:none"
         d="m 643.5698,359.58042 1.94807,25.66596 12.83659,27.00613 -14.56854,-12.32252 -4.47749,28.30761 -24.26214,-33.75353 -3.11732,-45.05669 18.02321,-14.92735 31.16626,-0.87362 13.79088,13.1669 -0.017,5.827 0.98765,31.37339 -12.53107,-18.08723 z"
         id="path13"
         sodipodi:nodetypes="cccccccccccccc"
         inkscape:label="path13" />
      <path
         style="fill:#4d4d4d;fill-opacity:1;stroke-width:1.38636;-inkscape-stroke:none"
         d="m 653.1484,364.50869 6.84439,-5.50936 -0.60393,-13.50683 7.247,21.5043 -6.64307,5.6871 z"
         id="path30"
         transform="translate(-1.7521332e-6)" />
      <path
         style="fill:#1a1a1a;fill-opacity:1;stroke-width:1.00307;-inkscape-stroke:none"
         d="m 645.45604,386.24637 10.031,1.90737 15.32406,16.21622 4.82934,-14.86757 2.8973,-13.22325 -4.09362,-25.05175 -11.91072,14.61912 -22.59401,-14.72811 z"
         id="path23"
         sodipodi:nodetypes="ccccccccc" />
      <path
         style="fill:#cccccc;fill-opacity:1;stroke-width:1;-inkscape-stroke:none"
         d="m 268.757,687.55622 -7.06636,13.42607 0.47109,11.30617 4.47535,8.47963 -10.36398,-10.83508 -0.23555,-14.36825 11.77727,-17.1948 z"
         id="path36"
         transform="matrix(1.4754807,0,0,1.3026207,236.04361,-376.58979)" />
      <path
         style="fill:#666666;fill-opacity:1;stroke-width:1.38636;-inkscape-stroke:none"
         d="m 487.77902,819.72742 14.16985,-10.53384 15.57712,0.19535 34.76254,-17.48285 -23.65193,28.02016 -43.08205,7.32931 z"
         id="path44"
         transform="translate(-1.7521332e-6)"
         inkscape:label="path44"
         sodipodi:nodetypes="ccccccc" />
      <path
         style="fill:#cccccc;fill-opacity:1;stroke-width:1.13195;-inkscape-stroke:none"
         d="m 655.69613,517.56715 6.95083,17.48908 -0.46338,14.72765 -4.40219,11.04574 10.19454,-14.114 0.2317,-18.71638 -11.58472,-22.3983 z"
         id="path36-9" />
      <path
         style="fill:#999999;stroke-width:1.38636;-inkscape-stroke:none"
         d="m 593.10758,452.57905 62.13313,12.94448 31.86599,-17.45128 -12.2858,63.21123 -16.39161,8.53689 -11.30917,45.09993 -6.29211,10.77517 -5.51321,-13.34313 -0.53249,-42.68856 -20.69193,-5.20771 z"
         id="path25"
         sodipodi:nodetypes="ccccccccccc" />
      <path
         style="fill:#999999;stroke-width:1.38636;-inkscape-stroke:none"
         d="m 398.5962,879.5342 104.34764,-92.49162 -0.91405,31.47135 61.24081,0.80694 -153.55903,80.69575 z"
         id="path26"
         sodipodi:nodetypes="cccccc" />
      <path
         style="fill:#cccccc;fill-opacity:1;stroke-width:1.38636;-inkscape-stroke:none"
         d="m 646.39212,361.14706 4.20154,20.19504 7.00254,3.29715 12.37115,12.77644 -13.07142,-11.54001 -8.63643,-2.67894 -5.1352,-27.40753 18.67341,12.36431 9.80357,-7.00646 -10.03698,10.30361 z"
         id="path35"
         transform="translate(-1.7521332e-6)" />
      <path
         style="fill:#cccccc;fill-opacity:1;stroke-width:1.38636;-inkscape-stroke:none"
         d="m 599.09421,581.48881 9.29982,11.36809 19.315,11.05233 -22.89186,-4.42092 -6.79602,-8.21029 z"
         id="path39"
         transform="translate(-1.7521332e-6)" />
      <path
         style="fill:#cccccc;fill-opacity:1;stroke-width:1.38636;-inkscape-stroke:none"
         d="m 595.15967,602.33034 7.86908,13.26279 20.03037,7.57872 -25.03797,-1.89469 -7.51139,-7.57872 z"
         id="path40"
         transform="translate(-1.7521332e-6)" />
      <path
         style="fill:#cccccc;fill-opacity:1;stroke-width:1.38636;-inkscape-stroke:none"
         d="m 652.747,589.38333 -5.72296,7.26295 -11.08826,5.36826 12.8767,-0.31577 4.2922,-2.84203 z"
         id="path41"
         transform="translate(-1.7521332e-6)" />
      <path
         style="fill:#cccccc;fill-opacity:1;stroke-width:1.38636;-inkscape-stroke:none"
         d="m 652.747,607.6986 -8.22675,8.52607 -14.30743,5.36829 15.02278,0.63154 8.94214,-4.42091 z"
         id="path42"
         transform="translate(-1.7521332e-6)" />
      <path
         style="fill:#cccccc;fill-opacity:1;stroke-width:1;-inkscape-stroke:none"
         d="m 242.14713,626.69631 11.24785,4.45669 4.45478,7.219 8.82553,11.07592 2.21161,11.41558 -22.70752,-25.89047 z"
         id="path37"
         transform="matrix(1.4754807,0,0,1.3026207,236.04361,-376.58979)"
         sodipodi:nodetypes="ccccccc" />
      <path
         style="fill:#cccccc;fill-opacity:1;stroke-width:1;-inkscape-stroke:none"
         d="m 292.49097,628.94386 1.60446,4.97377 3.04845,3.8507 -7.38562,11.30404 0.73707,12.73053 12.74545,-27.24347 z"
         id="path38"
         transform="matrix(1.4754807,0,0,1.3026207,236.04361,-376.58979)"
         sodipodi:nodetypes="ccccccc" />
      <path
         style="fill:#ffe6d5;stroke-width:0.799916;-inkscape-stroke:none"
         d="m 676.84955,500.56784 -14.32858,59.39284 -104.5655,102.59502 -38.13865,24.53073 -0.14608,16.43877 18.07937,-1.44676 30.84439,-30.40964 86.75138,-67.77353 28.13347,-32.47049 29.16557,-94.48224 -26.84628,-21.75443 z"
         id="path4"
         inkscape:label="CLArm"
         sodipodi:nodetypes="cccccccccccc"
         transform="translate(-1.7521332e-6)" />
      <path
         style="fill:#666666;fill-opacity:1;stroke-width:1.38636;-inkscape-stroke:none"
         d="m 619.49076,606.33233 22.42284,-6.22243 9.43045,-0.63563 15.96798,-4.05496 -17.46289,13.19854 -19.36734,11.82848 z"
         id="path46"
         inkscape:label="path46"
         sodipodi:nodetypes="ccccccc" />
      <path
         style="fill:#666666;fill-opacity:1;stroke-width:1.38636;-inkscape-stroke:none"
         d="m 634.72463,488.42609 -6.49131,-16.95411 -13.85073,-13.33966 -24.5987,-26.47668 -32.2062,27.50086 5.80768,21.44134 -22.45113,26.8041 41.78079,-5.26273 22.13594,-16.85878 17.65872,-2.56422 z"
         id="path31"
         sodipodi:nodetypes="ccccccccccc" />
      <path
         style="fill:#666666;fill-opacity:1;stroke-width:1.38636;-inkscape-stroke:none"
         d="m 679.60716,482.20799 -5.96137,0.42572 -9.22977,5.73995 1.9031,-17.23151 12.6918,-19.4435 -16.28376,-9.45614 25.25928,-13.38355 33.7901,28.43308 -11.25827,22.99055 17.43537,18.73418 -28.20624,-2.5575 z"
         id="path32"
         sodipodi:nodetypes="cccccccccccc" />
      <path
         style="fill:#999999;fill-opacity:1;stroke-width:1.38636;-inkscape-stroke:none"
         d="m 482.99644,608.44515 38.44993,-84.13416 2.48543,6.941 2.95084,8.24073 11.94544,-0.23771 13.97742,-0.27815 -53.44471,78.66195 z"
         id="path33"
         sodipodi:nodetypes="cccccccc" />
      <path
         style="fill:#999999;fill-opacity:1;stroke-width:1.38636;-inkscape-stroke:none"
         d="m 557.45754,662.49956 9.59213,10.30121 83.02482,-61.36143 -18.27892,3.40976 27.31481,-30.07003 -35.04464,21.93407 4.72212,-15.34193 z"
         id="path34"
         sodipodi:nodetypes="cccccccc" />
      <path
         style="fill:#cccccc;fill-opacity:1;stroke-width:1.38636;-inkscape-stroke:none"
         d="m 404.59278,890.52774 3.16211,-9.7994 79.18113,-58.61575 15.83505,-3.89452 -11.17629,13.0995 -75.18501,57.54095 z"
         id="path43"
         sodipodi:nodetypes="ccccccc" />
    </g>
    <g
       id="g12"
       inkscape:label="N"
       transform="matrix(0.70473696,0,0,0.88166117,550.2289,4.3160802)"
       style="display:inline;fill:#6c5353">
      <path
         style="fill:#6c5353;stroke-width:1;-inkscape-stroke:none"
         d="m 1330.2154,590.19957 -81.4999,211.76499 199.4092,118.35018 25.7036,14.03969 4.0259,43.79645 -16.1959,21.36966 -7.0263,-43.40556 -23.1648,-17.72964 -247.8524,-114.90206 96.8181,-292.11757 z"
         id="path11"
         inkscape:label="NLLeg"
         sodipodi:nodetypes="ccccccccccc" />
      <path
         style="fill:#1a1a1a;fill-opacity:1;stroke-width:1.38636;-inkscape-stroke:none"
         d="m 2475.7651,167.12416 -28.7909,73.61817 -54.2472,188.05694 215.2219,109.44331 16.5927,-24.93347 -168.5031,-106.39209 53.9617,-131.40791 16.4787,-68.43489 z"
         id="path21"
         transform="matrix(1.1602774,0,0,1.085938,-1597.5598,358.08716)"
         sodipodi:nodetypes="ccccccccc" />
      <path
         style="fill:#6c5353;stroke-width:1;-inkscape-stroke:none"
         d="m 1412.0255,296.91311 30.1142,-69.95698 157.3151,-101.0068 55.5642,15.08499 156.0336,231.77793 20.9538,17.47573 -3.3576,17.91617 -24.6653,-4.82056 -8.3421,-16.2181 -182.58,-215.50407 -139.4686,132.75115 -52.6753,38.2757 z"
         id="path7"
         sodipodi:nodetypes="ccccccccccccc"
         inkscape:label="NLArm" />
      <path
         style="fill:#6c5353;stroke-width:1;-inkscape-stroke:none"
         d="m 1340.9635,581.62053 22.5801,199.93395 241.2726,-8.5317 26.7076,-16.36428 59.733,5.02697 11.0174,16.67556 -34.6447,-0.53207 -48.4384,11.92615 -290.7978,35.30472 -53.0522,-275.11906 z"
         id="path10"
         sodipodi:nodetypes="ccccccccccc"
         inkscape:label="NRLeg" />
      <g
         id="g52"
         inkscape:label="Weapon">
        <path
           style="display:inline;fill:#214478;fill-opacity:0.5;stroke-width:1.26863;-inkscape-stroke:none"
           d="m 1326.6443,898.8663 -0.6611,85.52835 162.2829,-189.57298 20.4615,121.58718 -161.0311,166.38425 -123.6352,7.0138 -86.0653,-57.1837 -17.1027,-97.88873 147.3009,-156.65364 146.9974,-30.03772 -177.6804,168.74053 z"
           id="path54"
           sodipodi:nodetypes="cccccccccccc" />
        <path
           style="display:inline;fill:#999999;fill-opacity:1;stroke-width:1.26863;-inkscape-stroke:none"
           d="m 1337.4285,890.75871 -110.296,30.05551 -64.749,98.32608 -8.9545,65.5229 79.5868,-20.6667 95.6392,-86.07682 z"
           id="path55"
           sodipodi:nodetypes="ccccccc"
           transform="translate(3.2518043e-6)" />
        <path
           style="fill:#333333;fill-opacity:1;stroke-width:1.26863;-inkscape-stroke:none"
           d="m 1294.1715,918.2484 548.2512,-574.45895 4.678,-22.43548 71.3393,-29.91399 -18.7119,56.08873 -39.969,11.21772 -543.6884,575.29325 -26.8211,41.18039 -93.0228,56.82733 54.5215,-80.53721 z"
           id="path53"
           sodipodi:nodetypes="ccccccccccc" />
      </g>
      <path
         style="fill:#1a1a1a;fill-opacity:1;stroke-width:1.38636;-inkscape-stroke:none"
         d="m 2476.7629,172.21515 3.4358,84.29237 33.2374,178.70255 255.734,-29.23403 -27.6794,-29.52756 -179.4731,3.44717 -9.7578,-117.80604 -18.8294,-57.29236 z"
         id="path22"
         transform="matrix(1.1602774,0,0,1.085938,-1597.5598,358.08716)"
         sodipodi:nodetypes="ccccccccc" />
      <path
         style="fill:#214478;stroke-width:1.55618;-inkscape-stroke:none"
         d="m 1560.5755,194.49852 20.0177,50.33999 -59.8054,122.25429 -38.5981,89.67767 -33.1767,83.23302 1.3378,-75.23096 35.3757,-209.86602 33.0728,-49.62085 z"
         id="path16"
         inkscape:label="path16"
         sodipodi:nodetypes="ccccccccc" />
      <path
         style="fill:#1a1a1a;stroke-width:1;-inkscape-stroke:none"
         d="m 1439.9082,293.51292 -37.6817,31.41434 -52.8205,92.63146 -75.4834,124.39856 14.4971,74.01968 58.3211,-28.39372 41.5221,-109.0335 166.4475,-131.46343 -61.5931,-40.14459 z"
         id="path9"
         sodipodi:nodetypes="cccccccccc"
         inkscape:label="NBody" />
      <path
         style="display:inline;fill:#6c5353;stroke-width:1;-inkscape-stroke:none"
         d="m 1555.6775,346.47813 116.9381,-105.83182 109.8184,130.27134 19.8261,34.27412 23.3025,3.52028 7.2714,-18.1941 -25.4037,-21.43944 -102.7992,-175.52625 -35.4279,-6.72793 -146.8608,95.70894 -37.5052,50.89163 -2.7336,39.1378 47.5322,-3.978 z"
         id="path6"
         inkscape:label="NRArm"
         sodipodi:nodetypes="cccccccccccccc"
         transform="translate(3.2518043e-6)" />
      <path
         style="fill:#6c5353;fill-opacity:1;stroke-width:1.55618;-inkscape-stroke:none"
         d="m 1445.8611,294.4579 36.7523,-41.6471 29.3352,-6.28237 -21.4598,62.24566 z"
         id="path18"
         sodipodi:nodetypes="ccccc" />
      <path
         style="fill:#6c5353;stroke-width:1;-inkscape-stroke:none"
         d="m 1447.4827,271.61953 10.7667,-21.92073 4.479,-13.0511 25.9185,-30.95756 32.946,-15.78516 11.5188,37.72384 -44.8857,37.55525 -13.7546,6.40497 z"
         id="path12"
         sodipodi:nodetypes="ccccccccc"
         inkscape:label="NHead" />
      <path
         style="fill:#214478;stroke-width:1.38636;-inkscape-stroke:none"
         d="m 2658.4288,-140.57652 30.0357,-5.90103 -4.8412,18.37602 -6.0252,24.48048 -41.6474,63.317273 88.1253,-72.802143 2.8849,-31.36665 -11.6599,-15.62362 -24.6841,-2.65425 z"
         id="path15"
         transform="matrix(1.1602774,0,0,1.085938,-1597.5598,358.08716)"
         inkscape:label="path15"
         sodipodi:nodetypes="cccccccccc" />
      <path
         style="fill:#1a1a1a;fill-opacity:1;stroke-width:1.55618;-inkscape-stroke:none"
         d="m 1462.065,236.63876 17.957,-5.39122 2.4647,28.458 31.129,-22.91437 8.4033,-40.52555 -34.5133,9.52802 z"
         id="path24"
         sodipodi:nodetypes="ccccccc" />
      <path
         style="fill:#000000;fill-opacity:0.1;stroke-width:1.26863;-inkscape-stroke:none"
         d="m 1458.6053,280.29257 6.5642,-8.27428 9.3373,-0.39653 14.1437,-6.48288 -2.0508,5.02484 -9.9039,5.64919 z"
         id="path52"
         sodipodi:nodetypes="ccccccc" />
      <path
         style="fill:#666666;fill-opacity:1;stroke-width:1.26863;-inkscape-stroke:none"
         d="m 1483.0967,259.27446 4.6338,-21.71421 4.0272,9.66389 16.1256,-12.35668 6.2866,-20.9613 -13.2915,3.73284 14.7284,-11.62922 7.3479,-14.49812 -9.3237,45.22222 z"
         id="path56"
         sodipodi:nodetypes="cccccccccc" />
    </g>
  </g>
</svg>
