<?xml version="1.0" encoding="UTF-8" standalone="no"?>
<!-- Created with Inkscape (http://www.inkscape.org/) -->

<svg
   width="210mm"
   height="297mm"
   viewBox="0 0 210 297"
   version="1.1"
   id="svg1"
   sodipodi:docname="Liezer.svg"
   inkscape:version="1.3.2 (091e20e, 2023-11-25)"
   xmlns:inkscape="http://www.inkscape.org/namespaces/inkscape"
   xmlns:sodipodi="http://sodipodi.sourceforge.net/DTD/sodipodi-0.dtd"
   xmlns="http://www.w3.org/2000/svg"
   xmlns:svg="http://www.w3.org/2000/svg">
  <sodipodi:namedview
     id="namedview1"
     pagecolor="#505050"
     bordercolor="#eeeeee"
     borderopacity="1"
     inkscape:showpageshadow="0"
     inkscape:pageopacity="0"
     inkscape:pagecheckerboard="0"
     inkscape:deskcolor="#505050"
     inkscape:document-units="mm"
     inkscape:zoom="0.70951775"
     inkscape:cx="251.57933"
     inkscape:cy="637.05242"
     inkscape:window-width="1512"
     inkscape:window-height="837"
     inkscape:window-x="0"
     inkscape:window-y="38"
     inkscape:window-maximized="0"
     inkscape:current-layer="g1"
     showguides="true" />
  <defs
     id="defs1">
    <inkscape:path-effect
       effect="mirror_symmetry"
       start_point="105,0"
       end_point="105,297"
       center_point="105,148.5"
       id="path-effect1"
       is_visible="true"
       lpeversion="1.2"
       lpesatellites=""
       mode="vertical"
       discard_orig_path="false"
       fuse_paths="false"
       oposite_fuse="true"
       split_items="false"
       split_open="false"
       link_styles="false" />
    <filter
       inkscape:collect="always"
       style="color-interpolation-filters:sRGB"
       id="filter14"
       x="-0.081104624"
       y="-0.33018626"
       width="1.1622092"
       height="1.6603725">
      <feGaussianBlur
         inkscape:collect="always"
         stdDeviation="1.5231887"
         id="feGaussianBlur14" />
    </filter>
    <filter
       inkscape:collect="always"
       style="color-interpolation-filters:sRGB"
       id="filter17"
       x="-0.028331587"
       y="-0.29108218"
       width="1.0566632"
       height="1.5821644">
      <feGaussianBlur
         inkscape:collect="always"
         stdDeviation="0.51852836"
         id="feGaussianBlur17" />
    </filter>
    <filter
       inkscape:collect="always"
       style="color-interpolation-filters:sRGB"
       id="filter42"
       x="-0.10392602"
       y="-0.15134678"
       width="1.207852"
       height="1.3026936">
      <feGaussianBlur
         inkscape:collect="always"
         stdDeviation="2.0974126"
         id="feGaussianBlur42" />
    </filter>
    <filter
       inkscape:collect="always"
       style="color-interpolation-filters:sRGB"
       id="filter18"
       x="-0.22440353"
       y="-0.2149367"
       width="1.4488071"
       height="1.4298734">
      <feGaussianBlur
         inkscape:collect="always"
         stdDeviation="2.070708"
         id="feGaussianBlur18" />
    </filter>
    <filter
       inkscape:collect="always"
       style="color-interpolation-filters:sRGB"
       id="filter19"
       x="-0.12816735"
       y="-0.13329315"
       width="1.2563347"
       height="1.2665863">
      <feGaussianBlur
         inkscape:collect="always"
         stdDeviation="1.9948774"
         id="feGaussianBlur19" />
    </filter>
    <filter
       inkscape:collect="always"
       style="color-interpolation-filters:sRGB"
       id="filter21"
       x="-0.081889588"
       y="-0.055353774"
       width="1.1637792"
       height="1.1107075">
      <feGaussianBlur
         inkscape:collect="always"
         stdDeviation="1.1499802"
         id="feGaussianBlur21" />
    </filter>
    <filter
       inkscape:collect="always"
       style="color-interpolation-filters:sRGB"
       id="filter22"
       x="-0.036947299"
       y="-0.085717944"
       width="1.0738946"
       height="1.1714359">
      <feGaussianBlur
         inkscape:collect="always"
         stdDeviation="1.3580476"
         id="feGaussianBlur22" />
    </filter>
  </defs>
  <g
     inkscape:label="Layer 1"
     inkscape:groupmode="layer"
     id="layer1">
    <g
       id="g1"
       inkscape:path-effect="#path-effect1"
       inkscape:label="g1">
      <g
         id="g20"
         inkscape:label="BHair">
        <path
           style="fill:#aca793;fill-opacity:1;stroke-width:1;-inkscape-stroke:none"
           d="m 94.889914,24.590374 -0.867897,20.250897 -13.200268,69.159909 0.264404,6.94004 3.889724,3.95893 5.10256,0.71141 9.664756,-5.19638 L 105,108.91883 V 14.000345 Z m 20.220176,0 0.86789,20.250897 13.20027,69.159909 -0.2644,6.94004 -3.88973,3.95893 -5.10256,0.71141 -9.66475,-5.19638 L 105,108.91883 V 14.000345 Z"
           id="path12"
           inkscape:original-d="m 94.889914,24.590374 -0.867897,20.250897 -13.200268,69.159909 0.264404,6.94004 3.889724,3.95893 5.10256,0.71141 9.664756,-5.19638 L 105,108.91883 V 14.000345 Z"
           sodipodi:nodetypes="cccccccccc" />
        <path
           style="fill:#000000;fill-opacity:0.1;stroke-width:1;-inkscape-stroke:none;filter:url(#filter42)"
           d="m 85.0361,92.408284 4.237964,19.625556 15.927666,-16.418905 -0.27254,12.445215 -5.141688,12.25639 -9.436848,5.35172 -5.389835,-0.85103 -3.971457,-4.11329 -0.207505,-6.65194 z m 39.9278,0 -4.23796,19.625556 -15.92767,-16.418905 0.27254,12.445215 5.14169,12.25639 9.43685,5.35172 5.38983,-0.85103 3.97146,-4.11329 0.2075,-6.65194 z"
           id="path42"
           inkscape:original-d="m 85.0361,92.408284 4.237964,19.625556 15.927666,-16.418905 -0.27254,12.445215 -5.141688,12.25639 -9.436848,5.35172 -5.389835,-0.85103 -3.971457,-4.11329 -0.207505,-6.65194 z"
           sodipodi:nodetypes="cccccccccc" />
      </g>
      <g
         id="g10"
         inkscape:label="Neck">
        <path
           style="fill:#6c5353;stroke-width:0.9526;-inkscape-stroke:none"
           d="m 99.132472,47.972666 0.105189,7.147281 -0.429115,3.979974 L 105,65.50112 V 40.611571 Z m 11.735058,0 -0.10519,7.147281 0.42911,3.979974 L 105,65.50112 V 40.611571 Z"
           id="path2"
           inkscape:original-d="m 99.132472,47.972666 0.105189,7.147281 -0.429115,3.979974 L 105,65.50112 V 40.611571 Z"
           sodipodi:nodetypes="cccccc" />
      </g>
      <g
         id="g9"
         inkscape:label="Head">
        <path
           style="fill:#1a1a1a;fill-opacity:0.1;stroke-width:1;-inkscape-stroke:none"
           d="M 99.17014,49.722898 105,54.293138 v -8.015873 l -5.967686,-0.33396 z m 11.65972,0 L 105,54.293138 v -8.015873 l 5.96769,-0.33396 z"
           id="path11"
           inkscape:original-d="M 99.17014,49.722898 105,54.293138 v -8.015873 l -5.967686,-0.33396 z"
           sodipodi:nodetypes="ccccc" />
        <path
           style="fill:#6c5353;stroke-width:0.9526;-inkscape-stroke:none"
           d="M 105,14.874476 96.690187,20.918385 95.63712,36.183119 98.403954,48.218845 105,53.146618 Z m 0,0 8.30981,6.043909 1.05307,15.264734 -2.76683,12.035726 L 105,53.146618 Z"
           id="path1"
           inkscape:original-d="M 105,14.874476 96.690187,20.918385 95.63712,36.183119 98.403954,48.218845 105,53.146618 Z"
           sodipodi:nodetypes="cccccc" />
        <path
           style="fill:#000000;fill-opacity:1;stroke-width:1.07979;-inkscape-stroke:none"
           d="m 103.75849,45.924792 -0.36958,1.822647 0.54392,1.465033 1.06717,0.736415 2.4e-4,-4.853875 z m 2.48302,0 0.36958,1.822647 -0.54392,1.465033 -1.06717,0.736415 -2.4e-4,-4.853875 z"
           id="path15"
           inkscape:original-d="m 103.75849,45.924792 -0.36958,1.822647 0.54392,1.465033 1.06717,0.736415 2.4e-4,-4.853875 z"
           sodipodi:nodetypes="cccccc" />
        <path
           style="fill:#ffffff;fill-opacity:1;stroke-width:1;-inkscape-stroke:none"
           d="m 103.75796,45.894183 0.40073,0.405163 L 105,46.693013 v -1.610548 z m 2.48408,0 -0.40073,0.405163 L 105,46.693013 v -1.610548 z"
           id="path16"
           inkscape:original-d="m 103.75796,45.894183 0.40073,0.405163 L 105,46.693013 v -1.610548 z"
           sodipodi:nodetypes="ccccc" />
      </g>
      <g
         id="g11"
         inkscape:label="Body"
         style="display:inline">
        <path
           style="fill:#1a1a1a;stroke-width:0.9526;-inkscape-stroke:none"
           d="m 104.99987,61.630184 -6.201202,-2.718166 -13.996584,6.217934 -2.282114,8.359585 4.465486,4.941827 7.015261,36.452756 -4.09424,22.59844 6.0808,9.24146 L 105,150.96796 Z m 2.6e-4,0 6.2012,-2.718166 13.99659,6.217934 2.28211,8.359585 -4.46549,4.941827 -7.01526,36.452756 4.09424,22.59844 -6.0808,9.24146 L 105,150.96796 Z"
           id="path3"
           inkscape:original-d="m 104.99987,61.630184 -6.201202,-2.718166 -13.996584,6.217934 -2.282114,8.359585 4.465486,4.941827 7.015261,36.452756 -4.09424,22.59844 6.0808,9.24146 L 105,150.96796 Z"
           sodipodi:nodetypes="cccccccccc" />
      </g>
      <g
         id="g14"
         inkscape:label="Forelegs">
        <path
           style="fill:#1a1a1a;stroke-width:0.9526;-inkscape-stroke:none"
           d="m 89.888375,137.41416 -3.627316,26.85843 2.731954,41.73217 6.752637,3.91182 7.89415,-2.89354 L 105,151.0192 99.696387,141.43562 Z m 30.223255,0 3.62731,26.85843 -2.73195,41.73217 -6.75264,3.91182 -7.89415,-2.89354 L 105,151.0192 l 5.30361,-9.58358 z"
           id="path6"
           inkscape:original-d="m 89.888375,137.41416 -3.627316,26.85843 2.731954,41.73217 6.752637,3.91182 7.89415,-2.89354 L 105,151.0192 99.696387,141.43562 Z"
           sodipodi:nodetypes="cccccccc" />
      </g>
      <g
         id="g15"
         inkscape:label="Legs">
        <path
           style="fill:#1a1a1a;stroke-width:0.9526;-inkscape-stroke:none"
           d="m 89.031079,206.05569 -2.978794,17.24776 6.421394,60.84195 3.037557,1.1033 3.155872,-1.19591 5.014842,-77.03196 -7.381918,-3.68521 z m 31.937841,0 2.97879,17.24776 -6.42139,60.84195 -3.03756,1.1033 -3.15587,-1.19591 -5.01484,-77.03196 7.38192,-3.68521 z"
           id="path7"
           inkscape:original-d="m 89.031079,206.05569 -2.978794,17.24776 6.421394,60.84195 3.037557,1.1033 3.155872,-1.19591 5.014842,-77.03196 -7.381918,-3.68521 z"
           sodipodi:nodetypes="cccccccc" />
      </g>
      <g
         id="g16"
         inkscape:label="Hands"
         inkscape:transform-center-x="-34.992336"
         inkscape:transform-center-y="64.917372">
        <path
           style="fill:#6c5353;stroke-width:0.850648;-inkscape-stroke:none"
           d="m 58.283726,165.18013 -5.420458,13.09338 3.573386,2.1405 5.453374,-0.46336 2.044518,-5.92118 1.13354,-8.47108 -3.443185,-1.41519 z m 93.432544,0 5.42046,13.09338 -3.57338,2.1405 -5.45338,-0.46336 -2.04452,-5.92118 -1.13354,-8.47108 3.44319,-1.41519 z"
           id="path8"
           inkscape:original-d="m 58.283726,165.18013 -5.420458,13.09338 3.573386,2.1405 5.453374,-0.46336 2.044518,-5.92118 1.13354,-8.47108 -3.443185,-1.41519 z"
           sodipodi:nodetypes="cccccccc"
           inkscape:transform-center-x="101.70681"
           inkscape:transform-center-y="53.30096" />
      </g>
      <g
         id="g12"
         inkscape:label="Forearms"
         inkscape:transform-center-x="-34.992336"
         inkscape:transform-center-y="-26.543091">
        <path
           style="fill:#6c5353;stroke-width:0.850648;-inkscape-stroke:none"
           d="m 87.048762,78.409749 -1.055551,14.88337 -6.283739,22.519581 -5.334171,1.6615 -4.654852,-1.58607 7.158072,-38.742463 7.922866,-12.016742 z m 35.902478,0 1.05555,14.88337 6.28374,22.519581 5.33417,1.6615 4.65485,-1.58607 -7.15807,-38.742463 -7.92287,-12.016742 z"
           id="path4"
           inkscape:original-d="m 87.048762,78.409749 -1.055551,14.88337 -6.283739,22.519581 -5.334171,1.6615 -4.654852,-1.58607 7.158072,-38.742463 7.922866,-12.016742 z"
           sodipodi:nodetypes="cccccccc" />
      </g>
      <g
         id="g13"
         inkscape:label="Arms"
         inkscape:transform-center-x="-34.992336"
         inkscape:transform-center-y="28.357102">
        <path
           style="fill:#6c5353;stroke-width:0.850648;-inkscape-stroke:none"
           d="m 69.696336,115.82992 -4.664563,9.43402 -6.744594,39.91105 3.015508,1.30422 3.764773,-0.93828 14.59259,-49.71101 -4.650197,-2.4912 z m 70.607324,0 4.66457,9.43402 6.74459,39.91105 -3.01551,1.30422 -3.76477,-0.93828 -14.59259,-49.71101 4.6502,-2.4912 z"
           id="path5"
           inkscape:original-d="m 69.696336,115.82992 -4.664563,9.43402 -6.744594,39.91105 3.015508,1.30422 3.764773,-0.93828 14.59259,-49.71101 -4.650197,-2.4912 z"
           sodipodi:nodetypes="cccccccc"
           inkscape:transform-center-x="71.682996"
           inkscape:transform-center-y="20.93132" />
      </g>
      <g
         id="g17"
         inkscape:label="Feet">
        <path
           style="fill:#6c5353;stroke-width:0.9526;-inkscape-stroke:none"
           d="m 92.472921,284.11411 -1.957979,5.25358 -1.543351,3.60946 1.15467,4.08391 11.038449,0.002 0.8149,-3.99554 -1.53556,-3.98431 -1.803075,-5.01337 z m 25.054159,0 1.95798,5.25358 1.54335,3.60946 -1.15467,4.08391 -11.03845,0.002 -0.8149,-3.99554 1.53556,-3.98431 1.80308,-5.01337 z"
           id="path9"
           inkscape:original-d="m 92.472921,284.11411 -1.957979,5.25358 -1.543351,3.60946 1.15467,4.08391 11.038449,0.002 0.8149,-3.99554 -1.53556,-3.98431 -1.803075,-5.01337 z"
           sodipodi:nodetypes="ccccccccc" />
      </g>
      <g
         id="g18"
         inkscape:label="FHair">
        <path
           style="fill:#aca793;fill-opacity:1;stroke-width:1;-inkscape-stroke:none"
           d="m 105,25.516506 -6.843681,3.301366 -2.384658,6.717557 -0.40372,9.622288 -3.96103,8.304664 -1.148906,5.951941 -2.774972,4.299195 -3.40803,-1.607713 -1.626437,-4.53345 0.1357,-4.789738 1.871452,-10.114916 0.209036,-8.577248 -1.555563,-13.672868 2.268857,-7.109337 4.313076,-2.814797 5.669539,1.674024 2.546574,3.721402 L 99.84535,14.655552 105,13.517286 Z m 0,0 6.84368,3.301366 2.38466,6.717557 0.40372,9.622288 3.96103,8.304664 1.14891,5.951941 2.77497,4.299195 3.40803,-1.607713 1.62643,-4.53345 -0.1357,-4.789738 -1.87145,-10.114916 -0.20903,-8.577248 1.55556,-13.672868 -2.26886,-7.109337 -4.31307,-2.814797 -5.66954,1.674024 -2.54658,3.721402 -1.93811,-1.233324 L 105,13.517286 Z"
           id="path10"
           inkscape:original-d="m 105,25.516506 -6.843681,3.301366 -2.384658,6.717557 -0.40372,9.622288 -3.96103,8.304664 -1.148906,5.951941 -2.774972,4.299195 -3.40803,-1.607713 -1.626437,-4.53345 0.1357,-4.789738 1.871452,-10.114916 0.209036,-8.577248 -1.555563,-13.672868 2.268857,-7.109337 4.313076,-2.814797 5.669539,1.674024 2.546574,3.721402 L 99.84535,14.655552 105,13.517286 Z"
           sodipodi:nodetypes="cccccccccccccccccccc" />
        <path
           style="fill:#ffffff;fill-opacity:0.5;stroke-width:1;-inkscape-stroke:none;filter:url(#filter17)"
           d="m 83.037446,20.653984 11.862491,2.769922 10.116233,-0.301078 V 21.798082 L 94.478429,21.978729 83.39874,19.148591 Z m 43.925104,0 -11.86249,2.769922 -10.11623,-0.301078 v -1.324746 l 10.53774,0.180647 11.07969,-2.830138 z"
           id="path17"
           inkscape:original-d="m 83.037446,20.653984 11.862491,2.769922 10.116233,-0.301078 V 21.798082 L 94.478429,21.978729 83.39874,19.148591 Z" />
        <path
           style="mix-blend-mode:normal;fill:#000000;fill-opacity:0.1;stroke-width:1;-inkscape-stroke:none;filter:url(#filter14)"
           d="m 91.509235,53.549848 -1.174935,5.874668 -2.801763,4.202645 -3.342719,-1.491168 -1.726467,-4.535312 0.09831,-5.045007 4.792728,4.479739 z m 26.981525,0 1.17494,5.874668 2.80176,4.202645 3.34272,-1.491168 1.72647,-4.535312 -0.0983,-5.045007 -4.79273,4.479739 z"
           id="path14"
           inkscape:original-d="m 91.509235,53.549848 -1.174935,5.874668 -2.801763,4.202645 -3.342719,-1.491168 -1.726467,-4.535312 0.09831,-5.045007 4.792728,4.479739 z"
           sodipodi:nodetypes="cccccccc" />
      </g>
      <g
         id="g19"
         inkscape:label="Mask"
         style="fill:#1a1a1a">
        <path
           style="fill:#1a1a1a;fill-opacity:1;stroke-width:1;-inkscape-stroke:none"
           d="m 105,25.140655 -3.46965,-3.453112 -6.126653,9.847267 0.653948,8.50132 -3.851024,9.009944 L 105,39.672826 Z m 0,0 3.46965,-3.453112 6.12665,9.847267 -0.65394,8.50132 3.85102,9.009944 L 105,39.672826 Z"
           id="path13"
           inkscape:original-d="m 105,25.140655 -3.46965,-3.453112 -6.126653,9.847267 0.653948,8.50132 -3.851024,9.009944 L 105,39.672826 Z"
           sodipodi:nodetypes="ccccccc" />
      </g>
      <g
         id="g27"
         inkscape:label="LegArmor"
         style="fill:#cccccc;fill-opacity:1">
        <path
           style="fill:#cccccc;fill-opacity:1;stroke-width:1;-inkscape-stroke:none"
           d="m 92.474503,283.96243 -6.081698,-42.56508 -8.117446,20.68015 7.684971,-39.13973 7.967976,3.70048 8.736104,-3.62558 -4.024681,61.02588 -3.03323,-2.76693 z m 25.050997,0 6.0817,-42.56508 8.11744,20.68015 -7.68497,-39.13973 -7.96798,3.70048 -8.7361,-3.62558 4.02468,61.02588 3.03323,-2.76693 z"
           id="path36"
           inkscape:original-d="m 92.474503,283.96243 -6.081698,-42.56508 -8.117446,20.68015 7.684971,-39.13973 7.967976,3.70048 8.736104,-3.62558 -4.024681,61.02588 -3.03323,-2.76693 z"
           inkscape:label="path36"
           sodipodi:nodetypes="ccccccccc" />
      </g>
      <g
         id="g25"
         inkscape:label="ForelegArmor">
        <path
           style="fill:#666666;fill-opacity:1;stroke-width:1;-inkscape-stroke:none"
           d="m 89.592954,138.87297 6.220665,23.93569 -7.528004,25.40583 -2.807435,-7.3528 0.03092,-34.90013 z m 30.814096,0 -6.22067,23.93569 7.528,25.40583 2.80744,-7.3528 -0.0309,-34.90013 z"
           id="path25"
           inkscape:original-d="m 89.592954,138.87297 6.220665,23.93569 -7.528004,25.40583 -2.807435,-7.3528 0.03092,-34.90013 z"
           sodipodi:nodetypes="cccccc"
           inkscape:label="path25" />
        <path
           style="fill:#ffffff;fill-opacity:0.5;stroke-width:1;-inkscape-stroke:none;filter:url(#filter19)"
           d="m 86.381324,146.79526 -0.05888,33.62218 0.76548,1.00101 0.176649,-35.91862 z m 37.237356,0 0.0589,33.62218 -0.76548,1.00101 -0.17665,-35.91862 z"
           id="path19"
           inkscape:original-d="m 86.381324,146.79526 -0.05888,33.62218 0.76548,1.00101 0.176649,-35.91862 z" />
      </g>
      <g
         id="g23"
         inkscape:label="Armor">
        <path
           style="fill:#999999;fill-opacity:1;stroke-width:1;-inkscape-stroke:none"
           d="m 91.788107,103.34891 4.112232,4.18982 3.491516,8.69 -4.18982,9.69866 1.474195,-8.84518 -3.18116,-4.18982 -1.662343,-3.65468 z m 26.423783,0 -4.11223,4.18982 -3.49152,8.69 4.18982,9.69866 -1.47419,-8.84518 3.18116,-4.18982 1.66234,-3.65468 z"
           id="path29"
           inkscape:original-d="m 91.788107,103.34891 4.112232,4.18982 3.491516,8.69 -4.18982,9.69866 1.474195,-8.84518 -3.18116,-4.18982 -1.662343,-3.65468 z"
           sodipodi:nodetypes="cccccccc" />
        <path
           style="fill:#999999;fill-opacity:1;stroke-width:1;-inkscape-stroke:none"
           d="m 87.213648,79.425764 5.556938,5.109178 3.491516,8.69 -4.18982,9.698658 1.474195,-8.845178 -4.625866,-5.109178 -1.662343,-3.65468 z m 35.572702,0 -5.55694,5.109178 -3.49151,8.69 4.18982,9.698658 -1.4742,-8.845178 4.62587,-5.109178 1.66234,-3.65468 z"
           id="path29-1"
           sodipodi:nodetypes="cccccccc"
           inkscape:original-d="m 87.213648,79.425764 5.556938,5.109178 3.491516,8.69 -4.18982,9.698658 1.474195,-8.845178 -4.625866,-5.109178 -1.662343,-3.65468 z" />
        <path
           style="fill:#666666;fill-opacity:1;stroke-width:1;-inkscape-stroke:none"
           d="M 99.110416,94.46942 90.648498,84.936144 80.370112,67.501647 86.809047,63.865987 98.251091,58.326346 105,72.013116 v 8.428061 l -0.82275,6.177037 z m 11.779164,0 8.46192,-9.533276 10.27839,-17.434497 -6.43894,-3.63566 L 111.74891,58.326346 105,72.013116 v 8.428061 l 0.82275,6.177037 z"
           id="path23"
           inkscape:original-d="M 99.110416,94.46942 90.648498,84.936144 80.370112,67.501647 86.809047,63.865987 98.251091,58.326346 105,72.013116 v 8.428061 l -0.82275,6.177037 z"
           sodipodi:nodetypes="ccccccccc" />
        <path
           style="fill:#666666;fill-opacity:1;stroke-width:1;-inkscape-stroke:none"
           d="m 105,91.09439 -2.86546,4.596352 0.10891,22.358148 2.75655,6.95176 z m 0,0 2.86546,4.596352 -0.10891,22.358148 L 105,125.00065 Z"
           id="path24"
           inkscape:original-d="m 105,91.09439 -2.86546,4.596352 0.10891,22.358148 2.75655,6.95176 z"
           sodipodi:nodetypes="ccccc" />
        <path
           style="fill:#666666;fill-opacity:1;stroke-width:1;-inkscape-stroke:none"
           d="M 92.504288,139.15401 99.130669,163.00899 86.010434,203.03233 105,170.29801 v -41.34862 l -4.94164,-8.74683 z m 24.991422,0 -6.62638,23.85498 13.12024,40.02334 L 105,170.29801 v -41.34862 l 4.94164,-8.74683 z"
           id="path37"
           inkscape:original-d="M 92.504288,139.15401 99.130669,163.00899 86.010434,203.03233 105,170.29801 v -41.34862 l -4.94164,-8.74683 z"
           sodipodi:nodetypes="ccccccc"
           inkscape:label="path37" />
        <path
           style="fill:#cccccc;fill-opacity:1;stroke-width:1;-inkscape-stroke:none"
           d="m 82.612155,65.882596 4.062894,5.656183 1.515892,-4.86237 0.714432,7.806278 3.772965,8.627109 1.077805,-5.850043 5.426241,17.222422 -8.683437,-9.878406 -10.037736,-17.287211 z m 44.775695,0 -4.0629,5.656183 -1.51589,-4.86237 -0.71443,7.806278 -3.77297,8.627109 -1.0778,-5.850043 -5.42624,17.222422 8.68343,-9.878406 10.03774,-17.287211 z"
           id="path40"
           inkscape:original-d="m 82.612155,65.882596 4.062894,5.656183 1.515892,-4.86237 0.714432,7.806278 3.772965,8.627109 1.077805,-5.850043 5.426241,17.222422 -8.683437,-9.878406 -10.037736,-17.287211 z"
           sodipodi:nodetypes="cccccccccc"
           inkscape:label="path40" />
        <path
           style="fill:#cccccc;fill-opacity:1;stroke-width:1;-inkscape-stroke:none"
           d="m 101.78593,123.73352 -6.361624,15.16186 5.089294,8.48216 -4.45313,-4.02902 8.2613,25.37318 -3.24311,-4.22934 -15.061177,38.5502 13.223798,-40.07905 -6.679703,-24.28018 7.527922,-18.02459 z m 6.42814,0 6.36162,15.16186 -5.08929,8.48216 4.45313,-4.02902 -8.2613,25.37318 3.24311,-4.22934 15.06118,38.5502 -13.2238,-40.07905 6.6797,-24.28018 -7.52792,-18.02459 z"
           id="path41"
           inkscape:original-d="m 101.78593,123.73352 -6.361624,15.16186 5.089294,8.48216 -4.45313,-4.02902 8.2613,25.37318 -3.24311,-4.22934 -15.061177,38.5502 13.223798,-40.07905 -6.679703,-24.28018 7.527922,-18.02459 z"
           sodipodi:nodetypes="ccccccccccc" />
        <path
           style="mix-blend-mode:normal;fill:#ffffff;fill-opacity:0.5;stroke-width:1;-inkscape-stroke:none;filter:url(#filter18)"
           d="m 93.926869,63.284627 2.480179,-1.680121 4.960362,9.920724 0.24002,13.200964 -2.640194,-12.960948 z m 22.146261,0 -2.48018,-1.680121 -4.96036,9.920724 -0.24002,13.200964 2.64019,-12.960948 z"
           id="path18"
           inkscape:original-d="m 93.926869,63.284627 2.480179,-1.680121 4.960362,9.920724 0.24002,13.200964 -2.640194,-12.960948 z"
           sodipodi:nodetypes="cccccc" />
        <path
           style="fill:#999999;fill-opacity:1;stroke-width:1;-inkscape-stroke:none"
           d="m 105,93.999898 -2.18451,2.105621 0.75856,4.065511 0.10995,14.15918 -0.36616,3.8729 1.68216,4.16085 z m 0,0 2.18451,2.105621 -0.75856,4.065511 -0.10995,14.15918 0.36616,3.8729 L 105,122.36396 Z"
           id="path20"
           inkscape:original-d="m 105,93.999898 -2.18451,2.105621 0.75856,4.065511 0.10995,14.15918 -0.36616,3.8729 1.68216,4.16085 z"
           sodipodi:nodetypes="ccccccc" />
      </g>
      <g
         id="g39"
         inkscape:label="ArmArmor">
        <path
           style="fill:#cccccc;fill-opacity:1;stroke-width:1;-inkscape-stroke:none"
           d="m 58.370082,164.89848 -5.939185,4.59581 7.003232,-9.64777 5.317789,-34.09642 5.317791,-9.54074 2.815299,5.94341 6.256226,-3.91014 -14.017352,47.70614 -2.390627,-4.45312 z m 93.259838,0 5.93918,4.59581 -7.00323,-9.64777 -5.31779,-34.09642 -5.31779,-9.54074 -2.8153,5.94341 -6.25622,-3.91014 14.01735,47.70614 2.39063,-4.45312 z"
           id="path39"
           inkscape:original-d="m 58.370082,164.89848 -5.939185,4.59581 7.003232,-9.64777 5.317789,-34.09642 5.317791,-9.54074 2.815299,5.94341 6.256226,-3.91014 -14.017352,47.70614 -2.390627,-4.45312 z"
           sodipodi:nodetypes="cccccccccc" />
      </g>
      <path
         style="fill:#ffffff;fill-opacity:0.5;stroke-width:1;-inkscape-stroke:none;filter:url(#filter21)"
         d="m 88.576927,228.58562 -0.428596,11.85788 5.143174,38.00236 -2.714453,-35.7165 0.428599,-13.14368 z"
         id="path21"
         inkscape:original-d="m 88.576927,228.58562 -0.428596,11.85788 5.143174,38.00236 -2.714453,-35.7165 0.428599,-13.14368 z" />
      <path
         style="fill:#ffffff;fill-opacity:1;stroke-width:1;-inkscape-stroke:none;filter:url(#filter22)"
         d="m 60.892387,158.99175 5.354175,-32.12505 3.720698,-5.89866 0.453742,2.54096 -3.176204,4.71893 z m 88.215223,0 -5.35417,-32.12505 -3.7207,-5.89866 -0.45374,2.54096 3.1762,4.71893 z"
         id="path22"
         inkscape:original-d="m 60.892387,158.99175 5.354175,-32.12505 3.720698,-5.89866 0.453742,2.54096 -3.176204,4.71893 z"
         sodipodi:nodetypes="cccccc" />
    </g>
  </g>
</svg>
