<?xml version="1.0" encoding="UTF-8" standalone="no"?>
<!-- Created with Inkscape (http://www.inkscape.org/) -->

<svg
   width="210mm"
   height="297mm"
   viewBox="0 0 210 297"
   version="1.1"
   id="svg1"
   sodipodi:docname="Liezer.svg"
   inkscape:version="1.3.2 (091e20e, 2023-11-25)"
   xmlns:inkscape="http://www.inkscape.org/namespaces/inkscape"
   xmlns:sodipodi="http://sodipodi.sourceforge.net/DTD/sodipodi-0.dtd"
   xmlns="http://www.w3.org/2000/svg"
   xmlns:svg="http://www.w3.org/2000/svg">
  <sodipodi:namedview
     id="namedview1"
     pagecolor="#505050"
     bordercolor="#eeeeee"
     borderopacity="1"
     inkscape:showpageshadow="0"
     inkscape:pageopacity="0"
     inkscape:pagecheckerboard="0"
     inkscape:deskcolor="#505050"
     inkscape:document-units="mm"
     inkscape:zoom="2.032942"
     inkscape:cx="440.98651"
     inkscape:cy="188.64286"
     inkscape:window-width="1512"
     inkscape:window-height="832"
     inkscape:window-x="0"
     inkscape:window-y="38"
     inkscape:window-maximized="0"
     inkscape:current-layer="g9"
     showguides="false" />
  <defs
     id="defs1">
    <inkscape:path-effect
       effect="mirror_symmetry"
       start_point="105,0"
       end_point="105,297"
       center_point="105,148.5"
       id="path-effect1"
       is_visible="true"
       lpeversion="1.2"
       lpesatellites=""
       mode="vertical"
       discard_orig_path="false"
       fuse_paths="false"
       oposite_fuse="true"
       split_items="false"
       split_open="false"
       link_styles="false" />
    <filter
       inkscape:collect="always"
       style="color-interpolation-filters:sRGB"
       id="filter14"
       x="-0.12018121"
       y="-0.35823056"
       width="1.2403624"
       height="1.7164611">
      <feGaussianBlur
         inkscape:collect="always"
         stdDeviation="1.5231887"
         id="feGaussianBlur14" />
    </filter>
    <filter
       inkscape:collect="always"
       style="color-interpolation-filters:sRGB"
       id="filter17"
       x="-0.046643173"
       y="-0.62027982"
       width="1.0932863"
       height="2.2405596">
      <feGaussianBlur
         inkscape:collect="always"
         stdDeviation="0.51852836"
         id="feGaussianBlur17" />
    </filter>
    <filter
       inkscape:collect="always"
       style="color-interpolation-filters:sRGB"
       id="filter42"
       x="-0.10392602"
       y="-0.15134678"
       width="1.207852"
       height="1.3026936">
      <feGaussianBlur
         inkscape:collect="always"
         stdDeviation="2.0974126"
         id="feGaussianBlur42" />
    </filter>
    <filter
       inkscape:collect="always"
       style="color-interpolation-filters:sRGB"
       id="filter34"
       x="-0.11027778"
       y="-0.14866415"
       width="1.2205556"
       height="1.2973283">
      <feGaussianBlur
         inkscape:collect="always"
         stdDeviation="0.81736814"
         id="feGaussianBlur34" />
    </filter>
    <filter
       inkscape:collect="always"
       style="color-interpolation-filters:sRGB"
       id="filter46"
       x="-0.11105102"
       y="-0.15873794"
       width="1.222102"
       height="1.3174759">
      <feGaussianBlur
         inkscape:collect="always"
         stdDeviation="0.55226471"
         id="feGaussianBlur46" />
    </filter>
    <filter
       inkscape:collect="always"
       style="color-interpolation-filters:sRGB"
       id="filter47"
       x="-0.046733432"
       y="-0.061383178"
       width="1.0934669"
       height="1.1227664">
      <feGaussianBlur
         inkscape:collect="always"
         stdDeviation="0.291 0.127"
         id="feGaussianBlur47" />
    </filter>
    <filter
       inkscape:collect="always"
       style="color-interpolation-filters:sRGB"
       id="filter24"
       x="-0.16021351"
       y="-0.11586952"
       width="1.320427"
       height="1.231739">
      <feGaussianBlur
         inkscape:collect="always"
         stdDeviation="2.2517018"
         id="feGaussianBlur24" />
    </filter>
    <filter
       inkscape:collect="always"
       style="color-interpolation-filters:sRGB"
       id="filter25"
       x="-0.19366418"
       y="-0.13587259"
       width="1.3873284"
       height="1.2717452">
      <feGaussianBlur
         inkscape:collect="always"
         stdDeviation="2.7164649"
         id="feGaussianBlur25" />
    </filter>
  </defs>
  <g
     inkscape:label="Layer 1"
     inkscape:groupmode="layer"
     id="layer1">
    <g
       id="g1"
       inkscape:path-effect="#path-effect1"
       inkscape:label="g1">
      <g
         id="g20"
         inkscape:label="BHair">
        <path
           style="fill:#aca793;fill-opacity:1;stroke-width:1;-inkscape-stroke:none"
           d="m 94.889914,24.590374 -0.867897,20.250897 -13.200268,69.159909 0.264404,6.94004 3.889724,3.95893 5.10256,0.71141 9.664756,-5.19638 L 105,108.91883 V 14.000345 Z m 20.220176,0 0.86789,20.250897 13.20027,69.159909 -0.2644,6.94004 -3.88973,3.95893 -5.10256,0.71141 -9.66475,-5.19638 L 105,108.91883 V 14.000345 Z"
           id="path12"
           inkscape:original-d="m 94.889914,24.590374 -0.867897,20.250897 -13.200268,69.159909 0.264404,6.94004 3.889724,3.95893 5.10256,0.71141 9.664756,-5.19638 L 105,108.91883 V 14.000345 Z"
           sodipodi:nodetypes="cccccccccc" />
        <path
           style="fill:#000000;fill-opacity:0.1;stroke-width:1;-inkscape-stroke:none;filter:url(#filter42)"
           d="m 85.0361,92.408284 4.237964,19.625556 15.927666,-16.418905 -0.27254,12.445215 -5.141688,12.25639 -9.436848,5.35172 -5.389835,-0.85103 -3.971457,-4.11329 -0.207505,-6.65194 z m 39.9278,0 -4.23796,19.625556 -15.92767,-16.418905 0.27254,12.445215 5.14169,12.25639 9.43685,5.35172 5.38983,-0.85103 3.97146,-4.11329 0.2075,-6.65194 z"
           id="path42"
           inkscape:original-d="m 85.0361,92.408284 4.237964,19.625556 15.927666,-16.418905 -0.27254,12.445215 -5.141688,12.25639 -9.436848,5.35172 -5.389835,-0.85103 -3.971457,-4.11329 -0.207505,-6.65194 z"
           sodipodi:nodetypes="cccccccccc" />
      </g>
      <g
         id="g10"
         inkscape:label="Neck">
        <path
           style="fill:#6c5353;stroke-width:0.9526;-inkscape-stroke:none"
           d="m 99.132472,47.972666 0.105189,7.147281 -0.429115,3.979974 L 105,65.50112 V 40.611571 Z m 11.735058,0 -0.10519,7.147281 0.42911,3.979974 L 105,65.50112 V 40.611571 Z"
           id="path2"
           inkscape:original-d="m 99.132472,47.972666 0.105189,7.147281 -0.429115,3.979974 L 105,65.50112 V 40.611571 Z"
           sodipodi:nodetypes="cccccc" />
      </g>
      <g
         id="g9"
         inkscape:label="Head">
        <path
           style="fill:#1a1a1a;fill-opacity:0.1;stroke-width:1;-inkscape-stroke:none;filter:url(#filter46)"
           d="M 99.17014,49.722898 105,54.293138 v -8.015873 l -5.967686,-0.33396 z m 11.65972,0 L 105,54.293138 v -8.015873 l 5.96769,-0.33396 z"
           id="path11"
           inkscape:original-d="M 99.17014,49.722898 105,54.293138 v -8.015873 l -5.967686,-0.33396 z"
           sodipodi:nodetypes="ccccc" />
        <path
           style="fill:#6c5353;stroke-width:0.9526;-inkscape-stroke:none"
           d="M 105,14.874476 96.690187,20.918385 95.63712,36.183119 98.403954,48.218845 105,53.146618 Z m 0,0 8.30981,6.043909 1.05307,15.264734 -2.76683,12.035726 L 105,53.146618 Z"
           id="path1"
           inkscape:original-d="M 105,14.874476 96.690187,20.918385 95.63712,36.183119 98.403954,48.218845 105,53.146618 Z"
           sodipodi:nodetypes="cccccc" />
        <path
           style="fill:#000000;fill-opacity:1;stroke-width:1.07979;-inkscape-stroke:none"
           d="m 103.75849,45.924792 -0.36958,1.822647 0.54392,1.465033 1.06717,0.736415 2.4e-4,-4.853875 z m 2.48302,0 0.36958,1.822647 -0.54392,1.465033 -1.06717,0.736415 -2.4e-4,-4.853875 z"
           id="path15"
           inkscape:original-d="m 103.75849,45.924792 -0.36958,1.822647 0.54392,1.465033 1.06717,0.736415 2.4e-4,-4.853875 z"
           sodipodi:nodetypes="cccccc" />
        <path
           style="fill:#ffffff;fill-opacity:1;stroke-width:1;-inkscape-stroke:none"
           d="m 103.75796,45.894183 0.40073,0.405163 L 105,46.693013 v -1.610548 z m 2.48408,0 -0.40073,0.405163 L 105,46.693013 v -1.610548 z"
           id="path16"
           inkscape:original-d="m 103.75796,45.894183 0.40073,0.405163 L 105,46.693013 v -1.610548 z"
           sodipodi:nodetypes="ccccc" />
      </g>
      <g
         id="g11"
         inkscape:label="Body"
         style="display:inline">
        <path
           style="fill:#1a1a1a;stroke-width:0.9526;-inkscape-stroke:none"
           d="m 104.99987,61.630184 -6.201202,-2.718166 -13.996584,6.217934 -2.282114,8.359585 4.465486,4.941827 7.015261,36.452756 -4.09424,22.59844 6.0808,9.24146 L 105,150.96796 Z m 2.6e-4,0 6.2012,-2.718166 13.99659,6.217934 2.28211,8.359585 -4.46549,4.941827 -7.01526,36.452756 4.09424,22.59844 -6.0808,9.24146 L 105,150.96796 Z"
           id="path3"
           inkscape:original-d="m 104.99987,61.630184 -6.201202,-2.718166 -13.996584,6.217934 -2.282114,8.359585 4.465486,4.941827 7.015261,36.452756 -4.09424,22.59844 6.0808,9.24146 L 105,150.96796 Z"
           sodipodi:nodetypes="cccccccccc" />
      </g>
      <g
         id="g14"
         inkscape:label="Forelegs">
        <path
           style="fill:#1a1a1a;stroke-width:0.9526;-inkscape-stroke:none"
           d="m 89.888375,137.41416 -3.627316,26.85843 2.731954,41.73217 6.752637,3.91182 7.89415,-2.89354 L 105,151.0192 99.696387,141.43562 Z m 30.223255,0 3.62731,26.85843 -2.73195,41.73217 -6.75264,3.91182 -7.89415,-2.89354 L 105,151.0192 l 5.30361,-9.58358 z"
           id="path6"
           inkscape:original-d="m 89.888375,137.41416 -3.627316,26.85843 2.731954,41.73217 6.752637,3.91182 7.89415,-2.89354 L 105,151.0192 99.696387,141.43562 Z"
           sodipodi:nodetypes="cccccccc" />
      </g>
      <g
         id="g15"
         inkscape:label="Legs">
        <path
           style="fill:#1a1a1a;stroke-width:0.9526;-inkscape-stroke:none"
           d="m 89.031079,206.05569 -2.978794,17.24776 6.421394,60.84195 3.037557,1.1033 3.155872,-1.19591 5.014842,-77.03196 -7.381918,-3.68521 z m 31.937841,0 2.97879,17.24776 -6.42139,60.84195 -3.03756,1.1033 -3.15587,-1.19591 -5.01484,-77.03196 7.38192,-3.68521 z"
           id="path7"
           inkscape:original-d="m 89.031079,206.05569 -2.978794,17.24776 6.421394,60.84195 3.037557,1.1033 3.155872,-1.19591 5.014842,-77.03196 -7.381918,-3.68521 z"
           sodipodi:nodetypes="cccccccc" />
      </g>
      <g
         id="g16"
         inkscape:label="Hands"
         inkscape:transform-center-x="-34.992336"
         inkscape:transform-center-y="64.917372">
        <path
           style="fill:#6c5353;stroke-width:0.850648;-inkscape-stroke:none"
           d="m 58.283726,165.18013 -5.420458,13.09338 3.573386,2.1405 5.453374,-0.46336 2.044518,-5.92118 1.13354,-8.47108 -3.443185,-1.41519 z m 93.432544,0 5.42046,13.09338 -3.57338,2.1405 -5.45338,-0.46336 -2.04452,-5.92118 -1.13354,-8.47108 3.44319,-1.41519 z"
           id="path8"
           inkscape:original-d="m 58.283726,165.18013 -5.420458,13.09338 3.573386,2.1405 5.453374,-0.46336 2.044518,-5.92118 1.13354,-8.47108 -3.443185,-1.41519 z"
           sodipodi:nodetypes="cccccccc"
           inkscape:transform-center-x="101.70681"
           inkscape:transform-center-y="53.30096" />
      </g>
      <g
         id="g12"
         inkscape:label="Forearms"
         inkscape:transform-center-x="-34.992336"
         inkscape:transform-center-y="-26.543091">
        <path
           style="fill:#6c5353;stroke-width:0.850648;-inkscape-stroke:none"
           d="m 87.048762,78.409749 -1.055551,14.88337 -6.283739,22.519581 -5.334171,1.6615 -4.654852,-1.58607 7.158072,-38.742463 7.922866,-12.016742 z m 35.902478,0 1.05555,14.88337 6.28374,22.519581 5.33417,1.6615 4.65485,-1.58607 -7.15807,-38.742463 -7.92287,-12.016742 z"
           id="path4"
           inkscape:original-d="m 87.048762,78.409749 -1.055551,14.88337 -6.283739,22.519581 -5.334171,1.6615 -4.654852,-1.58607 7.158072,-38.742463 7.922866,-12.016742 z"
           sodipodi:nodetypes="cccccccc" />
      </g>
      <g
         id="g13"
         inkscape:label="Arms"
         inkscape:transform-center-x="-34.992336"
         inkscape:transform-center-y="28.357102">
        <path
           style="fill:#6c5353;stroke-width:0.850648;-inkscape-stroke:none"
           d="m 69.696336,115.82992 -4.664563,9.43402 -6.744594,39.91105 3.015508,1.30422 3.764773,-0.93828 14.59259,-49.71101 -4.650197,-2.4912 z m 70.607324,0 4.66457,9.43402 6.74459,39.91105 -3.01551,1.30422 -3.76477,-0.93828 -14.59259,-49.71101 4.6502,-2.4912 z"
           id="path5"
           inkscape:original-d="m 69.696336,115.82992 -4.664563,9.43402 -6.744594,39.91105 3.015508,1.30422 3.764773,-0.93828 14.59259,-49.71101 -4.650197,-2.4912 z"
           sodipodi:nodetypes="cccccccc"
           inkscape:transform-center-x="71.682996"
           inkscape:transform-center-y="20.93132" />
      </g>
      <g
         id="g17"
         inkscape:label="Feet">
        <path
           style="fill:#6c5353;stroke-width:0.9526;-inkscape-stroke:none"
           d="m 92.472921,284.11411 -1.957979,5.25358 -1.543351,3.60946 1.15467,4.08391 11.038449,0.002 0.8149,-3.99554 -1.53556,-3.98431 -1.803075,-5.01337 z m 25.054159,0 1.95798,5.25358 1.54335,3.60946 -1.15467,4.08391 -11.03845,0.002 -0.8149,-3.99554 1.53556,-3.98431 1.80308,-5.01337 z"
           id="path9"
           inkscape:original-d="m 92.472921,284.11411 -1.957979,5.25358 -1.543351,3.60946 1.15467,4.08391 11.038449,0.002 0.8149,-3.99554 -1.53556,-3.98431 -1.803075,-5.01337 z"
           sodipodi:nodetypes="ccccccccc" />
      </g>
      <g
         id="g18"
         inkscape:label="FHair">
        <path
           style="fill:#aca793;fill-opacity:1;stroke-width:1;-inkscape-stroke:none"
           d="m 105,25.516506 -5.31714,4.519985 -1.526541,-1.218619 -2.384658,6.717557 -0.40372,9.622288 -0.762389,8.186196 -1.148906,5.951941 -2.774972,4.299195 -1.67748,-18.476612 -0.471928,-8.836949 0.538958,-5.715722 1.238726,-5.655141 1.32895,-3.189891 2.224014,-3.502157 4.044322,-2.329701 L 99.84535,14.655552 105,13.517286 Z m 0,0 5.31714,4.519985 1.52654,-1.218619 2.38466,6.717557 0.40372,9.622288 0.76239,8.186196 1.1489,5.951941 2.77498,4.299195 1.67748,-18.476612 0.47192,-8.836949 -0.53895,-5.715722 -1.23873,-5.655141 -1.32895,-3.189891 -2.22401,-3.502157 -4.04433,-2.329701 -1.93811,-1.233324 L 105,13.517286 Z"
           id="path10"
           inkscape:original-d="m 105,25.516506 -5.31714,4.519985 -1.526541,-1.218619 -2.384658,6.717557 -0.40372,9.622288 -0.762389,8.186196 -1.148906,5.951941 -2.774972,4.299195 -1.67748,-18.476612 -0.471928,-8.836949 0.538958,-5.715722 1.238726,-5.655141 1.32895,-3.189891 2.224014,-3.502157 4.044322,-2.329701 L 99.84535,14.655552 105,13.517286 Z"
           sodipodi:nodetypes="cccccccccccccccccc" />
        <path
           style="fill:#ffffff;fill-opacity:0.5;stroke-width:1;-inkscape-stroke:none;filter:url(#filter17)"
           d="m 91.659698,23.490251 6.64376,0.500908 6.712712,-0.151771 v -1.324746 l -7.13422,0.03134 -5.860958,-0.561124 z m 26.680602,0 -6.64376,0.500908 -6.71271,-0.151771 v -1.324746 l 7.13422,0.03134 5.86096,-0.561124 z"
           id="path17"
           inkscape:original-d="m 91.659698,23.490251 6.64376,0.500908 6.712712,-0.151771 v -1.324746 l -7.13422,0.03134 -5.860958,-0.561124 z"
           sodipodi:nodetypes="ccccccc" />
        <path
           style="mix-blend-mode:normal;fill:#000000;fill-opacity:0.1;stroke-width:1;-inkscape-stroke:none;filter:url(#filter14)"
           d="m 94.643429,53.317319 -1.107532,5.90837 -2.831186,4.296379 -0.913631,-9.625193 2.486962,0.610132 z m 20.713141,0 1.10753,5.90837 2.83119,4.296379 0.91363,-9.625193 -2.48696,0.610132 z"
           id="path14"
           inkscape:original-d="m 94.643429,53.317319 -1.107532,5.90837 -2.831186,4.296379 -0.913631,-9.625193 2.486962,0.610132 z"
           sodipodi:nodetypes="cccccc" />
      </g>
      <g
         id="g19"
         inkscape:label="Mask"
         style="display:inline;fill:#1a1a1a"
         inkscape:transform-center-x="-0.11094255"
         inkscape:transform-center-y="-5.8032849">
        <path
           style="fill:#333333;fill-opacity:1;stroke-width:1;-inkscape-stroke:none"
           d="m 97.745601,27.637991 v 24.073736 l -1.799905,-4.04979 -0.112492,-22.386318 z m 14.508799,0 v 24.073736 l 1.7999,-4.04979 0.1125,-22.386318 z"
           id="path23-0"
           inkscape:original-d="M 97.745601,27.637991 V 51.711727 L 95.945696,47.661937 95.833204,25.275619 Z" />
        <path
           style="display:inline;fill:#333333;fill-opacity:1;stroke-width:1;-inkscape-stroke:none"
           d="m 100.32174,32.596362 v 24.073736 l -1.799897,-4.04979 -0.1125,-22.386318 z m 9.35652,0 v 24.073736 l 1.7999,-4.04979 0.1125,-22.386318 z"
           id="path23-0-9"
           inkscape:original-d="m 100.32174,32.596362 v 24.073736 l -1.799897,-4.04979 -0.1125,-22.386318 z" />
        <path
           style="fill:#000000;fill-opacity:0.1;stroke-width:1;-inkscape-stroke:none;filter:url(#filter47)"
           d="M 97.801193,45.698955 105,41.953031 v -1.219606 l -7.472167,3.69827 z m 14.397617,0 L 105,41.953031 v -1.219606 l 7.47217,3.69827 z"
           id="path26"
           inkscape:original-d="M 97.801193,45.698955 105,41.953031 v -1.219606 l -7.472167,3.69827 z"
           sodipodi:nodetypes="ccccc" />
        <path
           style="display:inline;fill:#1a1a1a;fill-opacity:1;stroke-width:1;-inkscape-stroke:none"
           d="m 105,25.140655 -7.287114,4.555357 -0.157967,-6.472418 -3.448817,5.493915 0.365089,16.997894 L 105,41.240461 Z m 0,0 7.28711,4.555357 0.15797,-6.472418 3.44882,5.493915 -0.36509,16.997894 L 105,41.240461 Z"
           id="path13"
           inkscape:original-d="m 105,25.140655 -7.287114,4.555357 -0.157967,-6.472418 -3.448817,5.493915 0.365089,16.997894 L 105,41.240461 Z"
           sodipodi:nodetypes="ccccccc" />
        <path
           style="fill:#ffffff;fill-opacity:0.5;stroke-width:1;-inkscape-stroke:none;filter:url(#filter34)"
           d="m 101.70937,29.102859 -5.603653,3.253738 0.261144,9.941666 0.582416,-9.58014 z m 6.58126,0 5.60365,3.253738 -0.26114,9.941666 -0.58242,-9.58014 z"
           id="path34"
           inkscape:original-d="m 101.70937,29.102859 -5.603653,3.253738 0.261144,9.941666 0.582416,-9.58014 z"
           sodipodi:nodetypes="ccccc" />
      </g>
      <g
         id="g27"
         inkscape:label="LegArmor"
         style="fill:#cccccc;fill-opacity:1"
         transform="translate(0,-0.28170758)">
        <path
           style="fill:#333333;fill-opacity:1;stroke-width:1;-inkscape-stroke:none"
           d="m 89.345281,226.73045 -5.556032,-23.42381 -0.816662,4.35585 5.057153,21.80793 z m 31.309439,0 5.55603,-23.42381 0.81666,4.35585 -5.05715,21.80793 z"
           id="path23-4-3"
           inkscape:original-d="m 89.345281,226.73045 -5.556032,-23.42381 -0.816662,4.35585 5.057153,21.80793 z"
           inkscape:transform-center-x="-8.539407"
           inkscape:transform-center-y="-1.8469765" />
        <path
           style="fill:#333333;fill-opacity:1;stroke-width:1;-inkscape-stroke:none"
           d="m 91.786369,218.96811 -5.556032,-23.42381 -0.816662,4.35585 5.057153,21.80793 z m 26.427261,0 5.55603,-23.42381 0.81667,4.35585 -5.05716,21.80793 z"
           id="path23-4-3-2"
           inkscape:transform-center-x="-8.539407"
           inkscape:transform-center-y="-1.8469765"
           inkscape:original-d="m 91.786369,218.96811 -5.556032,-23.42381 -0.816662,4.35585 5.057153,21.80793 z" />
        <path
           style="fill:#cccccc;stroke-width:1;-inkscape-stroke:none"
           d="m 87.94674,234.46226 1.684088,-22.73515 5.025525,-14.98972 5.827477,14.70903 1.30984,23.20297 -6.923462,7.11059 z m 34.10652,0 -1.68409,-22.73515 -5.02552,-14.98972 -5.82748,14.70903 -1.30984,23.20297 6.92346,7.11059 z"
           id="path21"
           inkscape:original-d="m 87.94674,234.46226 1.684088,-22.73515 5.025525,-14.98972 5.827477,14.70903 1.30984,23.20297 -6.923462,7.11059 z"
           sodipodi:nodetypes="ccccccc" />
        <path
           style="fill:#666666;stroke-width:1;-inkscape-stroke:none"
           d="m 86.043562,223.30854 8.379998,5.42874 8.58396,-6.5642 -4.039512,57.08566 -7.069145,-0.0276 z m 37.912878,0 -8.38,5.42874 -8.58396,-6.5642 4.03951,57.08566 7.06915,-0.0276 z"
           id="path22"
           sodipodi:nodetypes="cccccc"
           inkscape:label="path22"
           transform="translate(0,0.28170758)"
           inkscape:original-d="m 86.043562,223.30854 8.379998,5.42874 8.58396,-6.5642 -4.039512,57.08566 -7.069145,-0.0276 z" />
        <path
           style="fill:#ffffff;fill-opacity:0.5;stroke-width:1;-inkscape-stroke:none;filter:url(#filter25)"
           d="m 88.167987,228.06719 4.382173,22.12638 0.865922,25.85619 z m 33.664023,0 -4.38217,22.12638 -0.86592,25.85619 z"
           id="path25"
           inkscape:original-d="m 88.167987,228.06719 4.382173,22.12638 0.865922,25.85619 z"
           transform="translate(0,0.28170758)"
           sodipodi:nodetypes="cccc" />
      </g>
      <g
         id="g23"
         inkscape:label="Armor"
         style="fill:#666666">
        <path
           style="fill:#333333;fill-opacity:1;stroke-width:1;-inkscape-stroke:none"
           d="m 97.98234,98.767534 v 24.073736 l -1.799905,-4.04979 -0.112492,-22.386318 z m 14.03532,0 v 24.073736 l 1.79991,-4.04979 0.11249,-22.386318 z"
           id="path23"
           inkscape:original-d="M 97.98234,98.767534 V 122.84127 L 96.182435,118.79148 96.069943,96.405162 Z" />
        <path
           style="fill:#333333;fill-opacity:1;stroke-width:1;-inkscape-stroke:none"
           d="m 103.17601,105.1322 v 24.07374 l -1.79991,-4.04979 -0.11249,-22.38632 z m 3.64798,0 v 24.07374 l 1.79991,-4.04979 0.11249,-22.38632 z"
           id="path23-4"
           inkscape:original-d="m 103.17601,105.1322 v 24.07374 l -1.79991,-4.04979 -0.11249,-22.38632 z"
           transform="translate(0,-0.28170759)" />
        <path
           style="display:inline;fill:#cccccc;stroke-width:1;-inkscape-stroke:none"
           d="M 91.682837,84.701391 105,114.43421 104.99984,61.494998 Z m 26.634323,0 L 105,114.43421 l 1.6e-4,-52.939212 z"
           id="path20"
           inkscape:original-d="M 91.682837,84.701391 105,114.43421 104.99984,61.494998 Z"
           sodipodi:nodetypes="cccc" />
        <path
           style="fill:#666666;stroke-width:1;-inkscape-stroke:none"
           d="M 105,61.494586 98.896036,74.622334 99.25111,101.92326 95.402739,94.297115 87.989925,121.39174 87.038574,78.664881 84.802657,65.062862 98.765087,58.879667 Z m 0,0 6.10396,13.127748 -0.35507,27.300926 3.84837,-7.626145 7.41282,27.094625 0.95135,-42.726859 2.23591,-13.602019 -13.96243,-6.183195 z"
           id="path18"
           inkscape:original-d="M 105,61.494586 98.896036,74.622334 99.25111,101.92326 95.402739,94.297115 87.989925,121.39174 87.038574,78.664881 84.802657,65.062862 98.765087,58.879667 Z"
           sodipodi:nodetypes="ccccccccc" />
        <path
           style="fill:#ffffff;stroke-width:1;-inkscape-stroke:none;filter:url(#filter24);fill-opacity:0.5"
           d="m 95.907975,63.786233 -7.773233,3.543681 2.400556,11.659849 -0.342934,31.435867 1.600369,-6.17286 -0.01989,-25.277885 -2.152047,-10.616162 z m 18.184055,0 7.77323,3.543681 -2.40056,11.659849 0.34294,31.435867 -1.60037,-6.17286 0.0199,-25.277885 2.15204,-10.616162 z"
           id="path24"
           inkscape:original-d="m 95.907975,63.786233 -7.773233,3.543681 2.400556,11.659849 -0.342934,31.435867 1.600369,-6.17286 -0.01989,-25.277885 -2.152047,-10.616162 z"
           sodipodi:nodetypes="cccccccc" />
      </g>
    </g>
  </g>
</svg>
