<?xml version="1.0" encoding="UTF-8" standalone="no"?>
<!-- Created with Inkscape (http://www.inkscape.org/) -->

<svg
   width="400mm"
   height="400mm"
   viewBox="0 0 400 400"
   version="1.1"
   id="svg1"
   inkscape:version="1.3.2 (091e20e, 2023-11-25)"
   sodipodi:docname="SM-01.svg"
   xmlns:inkscape="http://www.inkscape.org/namespaces/inkscape"
   xmlns:sodipodi="http://sodipodi.sourceforge.net/DTD/sodipodi-0.dtd"
   xmlns="http://www.w3.org/2000/svg"
   xmlns:svg="http://www.w3.org/2000/svg">
  <sodipodi:namedview
     id="namedview1"
     pagecolor="#505050"
     bordercolor="#eeeeee"
     borderopacity="1"
     inkscape:showpageshadow="0"
     inkscape:pageopacity="0"
     inkscape:pagecheckerboard="0"
     inkscape:deskcolor="#505050"
     inkscape:document-units="mm"
     inkscape:zoom="0.26409702"
     inkscape:cx="880.35828"
     inkscape:cy="1126.48"
     inkscape:window-width="1512"
     inkscape:window-height="832"
     inkscape:window-x="0"
     inkscape:window-y="38"
     inkscape:window-maximized="0"
     inkscape:current-layer="g1" />
  <defs
     id="defs1">
    <inkscape:path-effect
       effect="mirror_symmetry"
       start_point="200,0"
       end_point="200,400"
       center_point="200,200"
       id="path-effect1"
       is_visible="true"
       lpeversion="1.2"
       lpesatellites=""
       mode="vertical"
       discard_orig_path="false"
       fuse_paths="false"
       oposite_fuse="false"
       split_items="false"
       split_open="false"
       link_styles="false" />
  </defs>
  <g
     inkscape:label="Layer 1"
     inkscape:groupmode="layer"
     id="layer1">
    <g
       id="g1"
       inkscape:path-effect="#path-effect1">
      <path
         style="fill:#1a1a1a;stroke-width:1;-inkscape-stroke:none"
         d="m 179.15451,55.85806 -12.26153,47.68371 1.36239,109.67253 -26.81021,68.30123 -37.90339,-65.57645 -46.827532,49.39439 3.667867,135.03536 11.435417,-132.11735 23.549896,-25.74576 46.454812,74.91915 51.80189,-99.47101 V 102.38763 Z m 41.69098,0 12.26153,47.68371 -1.36239,109.67253 26.81021,68.30123 37.90339,-65.57645 46.82753,49.39439 -3.66786,135.03536 -11.43542,-132.11735 -23.5499,-25.74576 -46.45481,74.91915 -51.80189,-99.47101 V 102.38763 Z"
         id="path1"
         inkscape:original-d="m 179.15451,55.85806 -12.26153,47.68371 1.36239,109.67253 -26.81021,68.30123 -37.90339,-65.57645 -46.827532,49.39439 3.667867,135.03536 11.435417,-132.11735 23.549896,-25.74576 46.454812,74.91915 51.80189,-99.47101 V 102.38763 Z"
         sodipodi:nodetypes="ccccccccccccc" />
      <path
         style="fill:#1a1a1a;stroke-width:1;-inkscape-stroke:none"
         d="m 103.5343,400.06059 7.99274,-116.07882 25.65831,-34.57589 17.34434,69.862 31.65328,-51.46441 -0.88238,-21.6184 -18.97125,-18.08887 -0.28997,31.06608 -10.51733,23.44082 -14.29307,-58.04312 -46.157737,51.33479 z m 192.9314,0 -7.99274,-116.07882 -25.65831,-34.57589 -17.34434,69.862 -31.65328,-51.46441 0.88238,-21.6184 18.97125,-18.08887 0.28997,31.06608 10.51733,23.44082 14.29307,-58.04312 46.15774,51.33479 z"
         id="path13"
         inkscape:original-d="m 103.5343,400.06059 7.99274,-116.07882 25.65831,-34.57589 17.34434,69.862 31.65328,-51.46441 -0.88238,-21.6184 -18.97125,-18.08887 -0.28997,31.06608 -10.51733,23.44082 -14.29307,-58.04312 -46.157737,51.33479 z"
         sodipodi:nodetypes="cccccccccccc" />
      <path
         style="fill:#1a1a1a;stroke-width:1;-inkscape-stroke:none"
         d="m 190.72452,101.72823 3.9331,-13.126879 1.66896,-17.841019 -2.54639,-12.957307 3.0565,-5.205052 1.12309,-3.56392 -1.19808,-1.882592 -0.58545,-5.155246 0.43432,-3.656367 L 200,36.578241 V 113.19 l -6.14723,8.69776 -7.50629,-9.88923 z m 18.55096,0 -3.9331,-13.126879 -1.66896,-17.841019 2.54639,-12.957307 -3.0565,-5.205052 -1.12309,-3.56392 1.19808,-1.882592 0.58545,-5.155246 -0.43432,-3.656367 L 200,36.578241 V 113.19 l 6.14723,8.69776 7.50629,-9.88923 z"
         id="path8"
         inkscape:original-d="m 190.72452,101.72823 3.9331,-13.126879 1.66896,-17.841019 -2.54639,-12.957307 3.0565,-5.205052 1.12309,-3.56392 -1.19808,-1.882592 -0.58545,-5.155246 0.43432,-3.656367 L 200,36.578241 V 113.19 l -6.14723,8.69776 -7.50629,-9.88923 z"
         sodipodi:nodetypes="cccccccccccccc" />
      <path
         style="fill:#1a1a1a;stroke-width:1;-inkscape-stroke:none"
         d="m 168.06217,213.07029 6.45025,37.36144 0.27505,23.85605 -10.93854,18.28142 -30.91051,-72.12795 -56.520566,49.47345 1.390966,129.95105 14.53117,-124.64369 35.56747,-25.61868 39.10404,70.5546 23.62892,-39.31519 3.30824,-66.89856 z m 63.87566,0 -6.45025,37.36144 -0.27505,23.85605 10.93854,18.28142 30.91051,-72.12795 56.52057,49.47345 -1.39097,129.95105 -14.53117,-124.64369 -35.56747,-25.61868 -39.10404,70.5546 -23.62892,-39.31519 -3.30824,-66.89856 z"
         id="path2"
         inkscape:original-d="m 168.06217,213.07029 6.45025,37.36144 0.27505,23.85605 -10.93854,18.28142 -30.91051,-72.12795 -56.520566,49.47345 1.390966,129.95105 14.53117,-124.64369 35.56747,-25.61868 39.10404,70.5546 23.62892,-39.31519 3.30824,-66.89856 z"
         sodipodi:nodetypes="ccccccccccccc" />
      <path
         style="fill:#1a1a1a;stroke-width:1;-inkscape-stroke:none"
         d="M 106.78866,89.326367 200,142.38489 v 28.87995 L 158.49008,149.15129 98.554145,198.80595 127.88399,132.84652 105.44541,120.89283 59.649119,49.726848 Z m 186.42268,0 L 200,142.38489 v 28.87995 l 41.50992,-22.11355 59.93593,49.65466 -29.32984,-65.95943 22.43858,-11.95369 45.79629,-71.165982 z"
         id="path3"
         inkscape:original-d="M 106.78866,89.326367 200,142.38489 v 28.87995 L 158.49008,149.15129 98.554145,198.80595 127.88399,132.84652 105.44541,120.89283 59.649119,49.726848 Z"
         sodipodi:nodetypes="ccccccccc" />
      <path
         style="fill:#333333;stroke-width:1;-inkscape-stroke:none"
         d="m 79.221624,151.3562 40.881206,6.56828 32.13589,33.61231 -10.56755,23.1165 -45.561636,-7.68265 -29.767107,-30.84676 z m 241.556756,0 -40.88121,6.56828 -32.13589,33.61231 10.56755,23.1165 45.56164,-7.68265 29.7671,-30.84676 z"
         id="path4"
         inkscape:original-d="m 79.221624,151.3562 40.881206,6.56828 32.13589,33.61231 -10.56755,23.1165 -45.561636,-7.68265 -29.767107,-30.84676 z"
         sodipodi:nodetypes="ccccccc" />
      <path
         style="fill:#999999;stroke-width:1;-inkscape-stroke:none"
         d="m 179.19063,144.87753 2.17861,86.59972 L 200,270.14757 V 105.11791 Z m 41.61874,0 -2.17861,86.59972 L 200,270.14757 V 105.11791 Z"
         id="path5"
         inkscape:original-d="m 179.19063,144.87753 2.17861,86.59972 L 200,270.14757 V 105.11791 Z"
         sodipodi:nodetypes="ccccc" />
      <path
         style="fill:#999999;stroke-width:1;-inkscape-stroke:none"
         d="m 65.413953,166.79434 32.594581,34.3929 51.027376,10.11556 -3.82143,8.54203 -51.476961,-8.09245 -33.718532,-36.6408 z m 269.172097,0 -32.59458,34.3929 -51.02738,10.11556 3.82143,8.54203 51.47696,-8.09245 33.71853,-36.6408 z"
         id="path6"
         inkscape:original-d="m 65.413953,166.79434 32.594581,34.3929 51.027376,10.11556 -3.82143,8.54203 -51.476961,-8.09245 -33.718532,-36.6408 z" />
      <path
         style="fill:#999999;stroke-width:1;-inkscape-stroke:none"
         d="m 73.955981,155.10525 42.710139,8.99161 37.76476,35.51685 4.04622,-9.89077 -38.66392,-36.86559 -44.28367,-6.51892 z m 252.088039,0 -42.71014,8.99161 -37.76476,35.51685 -4.04622,-9.89077 38.66392,-36.86559 44.28367,-6.51892 z"
         id="path7"
         inkscape:original-d="m 73.955981,155.10525 42.710139,8.99161 37.76476,35.51685 4.04622,-9.89077 -38.66392,-36.86559 -44.28367,-6.51892 z" />
      <path
         style="fill:#1a1a1a;stroke-width:1;-inkscape-stroke:none"
         d="m 76.125718,164.40658 -0.256453,5.04955 2.866123,3.68514 4.456557,0.66014 3.769932,-2.739 0.323866,-4.99078 -3.138969,-3.72263 -4.924307,-0.36468 z m 247.748562,0 0.25645,5.04955 -2.86612,3.68514 -4.45656,0.66014 -3.76993,-2.739 -0.32386,-4.99078 3.13897,-3.72263 4.9243,-0.36468 z"
         id="path9"
         inkscape:original-d="m 76.125718,164.40658 -0.256453,5.04955 2.866123,3.68514 4.456557,0.66014 3.769932,-2.739 0.323866,-4.99078 -3.138969,-3.72263 -4.924307,-0.36468 z"
         sodipodi:nodetypes="ccccccccc" />
      <path
         style="fill:#1a1a1a;stroke-width:1;-inkscape-stroke:none"
         d="m 97.908752,189.56247 -0.256453,5.04955 2.866121,3.68514 4.45656,0.66014 3.76994,-2.739 0.32386,-4.99078 -3.13897,-3.72263 -4.92431,-0.36468 z m 204.182498,0 0.25645,5.04955 -2.86612,3.68514 -4.45656,0.66014 -3.76994,-2.739 -0.32386,-4.99078 3.13897,-3.72263 4.92431,-0.36468 z"
         id="path9-7"
         sodipodi:nodetypes="ccccccccc"
         inkscape:original-d="m 97.908752,189.56247 -0.256453,5.04955 2.866121,3.68514 4.45656,0.66014 3.76994,-2.739 0.32386,-4.99078 -3.13897,-3.72263 -4.92431,-0.36468 z" />
      <path
         style="fill:#1a1a1a;stroke-width:1;-inkscape-stroke:none"
         d="m 90.36324,172.25069 -0.256453,5.04955 2.866121,3.68514 4.45656,0.66014 3.769942,-2.739 0.32386,-4.99078 -3.138972,-3.72263 -4.92431,-0.36468 z m 219.27352,0 0.25645,5.04955 -2.86612,3.68514 -4.45656,0.66014 -3.76994,-2.739 -0.32386,-4.99078 3.13897,-3.72263 4.92431,-0.36468 z"
         id="path9-7-3"
         sodipodi:nodetypes="ccccccccc"
         inkscape:original-d="m 90.36324,172.25069 -0.256453,5.04955 2.866121,3.68514 4.45656,0.66014 3.769942,-2.739 0.32386,-4.99078 -3.138972,-3.72263 -4.92431,-0.36468 z" />
      <path
         style="fill:#1a1a1a;stroke-width:1;-inkscape-stroke:none"
         d="m 115.1182,184.78883 -0.25646,5.04955 2.86612,3.68514 4.45656,0.66014 3.76995,-2.739 0.32386,-4.99078 -3.13898,-3.72263 -4.92431,-0.36468 z m 169.7636,0 0.25646,5.04955 -2.86612,3.68514 -4.45656,0.66014 -3.76995,-2.739 -0.32386,-4.99078 3.13898,-3.72263 4.92431,-0.36468 z"
         id="path9-7-3-1"
         sodipodi:nodetypes="ccccccccc"
         inkscape:original-d="m 115.1182,184.78883 -0.25646,5.04955 2.86612,3.68514 4.45656,0.66014 3.76995,-2.739 0.32386,-4.99078 -3.13898,-3.72263 -4.92431,-0.36468 z" />
      <path
         style="fill:#1a1a1a;stroke-width:1;-inkscape-stroke:none"
         d="m 131.82102,193.54401 -0.25645,5.04955 2.86612,3.68514 4.45655,0.66014 3.76994,-2.739 0.32386,-4.99078 -3.13897,-3.72263 -4.9243,-0.36468 z m 136.35796,0 0.25645,5.04955 -2.86612,3.68514 -4.45655,0.66014 -3.76994,-2.739 -0.32386,-4.99078 3.13897,-3.72263 4.9243,-0.36468 z"
         id="path9-7-8"
         sodipodi:nodetypes="ccccccccc"
         inkscape:original-d="m 131.82102,193.54401 -0.25645,5.04955 2.86612,3.68514 4.45655,0.66014 3.76994,-2.739 0.32386,-4.99078 -3.13897,-3.72263 -4.9243,-0.36468 z" />
      <path
         style="fill:#1a1a1a;stroke-width:1;-inkscape-stroke:none"
         d="m 107.0885,169.31671 -0.25646,5.04955 2.86613,3.68514 4.45655,0.66014 3.76994,-2.739 0.32386,-4.99078 -3.13897,-3.72263 -4.9243,-0.36468 z m 185.823,0 0.25646,5.04955 -2.86613,3.68514 -4.45655,0.66014 -3.76994,-2.739 -0.32386,-4.99078 3.13897,-3.72263 4.9243,-0.36468 z"
         id="path9-5"
         sodipodi:nodetypes="ccccccccc"
         inkscape:original-d="m 107.0885,169.31671 -0.25646,5.04955 2.86613,3.68514 4.45655,0.66014 3.76994,-2.739 0.32386,-4.99078 -3.13897,-3.72263 -4.9243,-0.36468 z" />
      <path
         style="fill:#999999;fill-opacity:1;stroke-width:1;-inkscape-stroke:none"
         d="m 105.71582,101.32623 19.57701,16.27977 35.99079,5.9414 -6.61307,-16.78512 -9.08267,-11.288825 -43.53005,-17.192537 -29.629691,-35.116674 19.38733,44.261642 z m 188.56836,0 -19.57701,16.27977 -35.99079,5.9414 6.61307,-16.78512 9.08267,-11.288825 43.53005,-17.192537 29.62969,-35.116674 -19.38733,44.261642 z"
         id="path10"
         inkscape:label="path10"
         inkscape:original-d="m 105.71582,101.32623 19.57701,16.27977 35.99079,5.9414 -6.61307,-16.78512 -9.08267,-11.288825 -43.53005,-17.192537 -29.629691,-35.116674 19.38733,44.261642 z"
         sodipodi:nodetypes="ccccccccc" />
      <path
         style="fill:#999999;fill-opacity:1;stroke-width:1;-inkscape-stroke:none"
         d="M 195.97822,36.844557 195.86937,41.252843 200,46.804018 V 34.068972 Z m 8.04356,0 0.10885,4.408286 L 200,46.804018 V 34.068972 Z"
         id="path11"
         inkscape:original-d="M 195.97822,36.844557 195.86937,41.252843 200,46.804018 V 34.068972 Z"
         sodipodi:nodetypes="ccccc" />
      <path
         style="fill:#999999;fill-opacity:1;stroke-width:1;-inkscape-stroke:none"
         d="m 172.84887,49.016842 11.69524,39.385461 -0.3761,19.086407 -5.98749,12.90353 -8.07953,10.63948 -5.85157,-16.83108 0.62426,-27.915984 z m 54.30226,0 -11.69524,39.385461 0.3761,19.086407 5.98749,12.90353 8.07953,10.63948 5.85157,-16.83108 -0.62426,-27.915984 z"
         id="path12"
         inkscape:original-d="m 172.84887,49.016842 11.69524,39.385461 -0.3761,19.086407 -5.98749,12.90353 -8.07953,10.63948 -5.85157,-16.83108 0.62426,-27.915984 z"
         sodipodi:nodetypes="cccccccc" />
      <path
         style="fill:#1a1a1a;stroke-width:1;-inkscape-stroke:none"
         d="m 181.98965,247.88731 -21.20722,48.40577 8.36257,23.95128 20.63188,6.96823 3.63738,62.49413 -12.66403,-48.35358 -23.69362,-6.87913 -11.13508,-37.00648 26.4232,-61.41635 z m 36.0207,0 21.20722,48.40577 -8.36257,23.95128 -20.63188,6.96823 -3.63738,62.49413 12.66403,-48.35358 23.69362,-6.87913 11.13508,-37.00648 -26.4232,-61.41635 z"
         id="path14"
         inkscape:original-d="m 181.98965,247.88731 -21.20722,48.40577 8.36257,23.95128 20.63188,6.96823 3.63738,62.49413 -12.66403,-48.35358 -23.69362,-6.87913 -11.13508,-37.00648 26.4232,-61.41635 z"
         sodipodi:nodetypes="cccccccccc" />
    </g>
  </g>
</svg>
